<svg width="18" height="18" viewBox="0 0 18 18" fill="none" xmlns="http://www.w3.org/2000/svg">
<path d="M15.75 12.468V5.53223C15.75 5.43242 15.7234 5.33441 15.6731 5.24825C15.6227 5.1621 15.5503 5.0909 15.4633 5.04197L9.27577 1.5615C9.19158 1.51414 9.0966 1.48926 9 1.48926C8.9034 1.48926 8.80842 1.51414 8.72423 1.5615L2.53673 5.04197C2.44974 5.0909 2.37733 5.1621 2.32694 5.24825C2.27656 5.33441 2.25 5.43242 2.25 5.53223V12.468C2.25 12.5678 2.27656 12.6658 2.32694 12.752C2.37733 12.8382 2.44974 12.9094 2.53673 12.9583L8.72423 16.4388C8.80842 16.4861 8.9034 16.511 9 16.511C9.0966 16.511 9.19158 16.4861 9.27577 16.4388L15.4633 12.9583C15.5503 12.9094 15.6227 12.8382 15.6731 12.752C15.7234 12.6658 15.75 12.5678 15.75 12.468Z" stroke="black" stroke-linecap="round" stroke-linejoin="round"/>
<path d="M15.6724 5.24722L9.0667 9.00008L2.32788 5.24658" stroke="black" stroke-linecap="round" stroke-linejoin="round"/>
<path d="M9.06674 9L9.00073 16.5109" stroke="black" stroke-linecap="round" stroke-linejoin="round"/>
</svg>
