<svg width="18" height="18" viewBox="0 0 18 18" fill="none" xmlns="http://www.w3.org/2000/svg">
<path d="M9.5625 5.0625V12.9375" stroke="black" stroke-linecap="round" stroke-linejoin="round"/>
<path d="M16.0312 5.0625H12.6562V12.9375" stroke="black" stroke-linecap="round" stroke-linejoin="round"/>
<path d="M15.1875 9H12.6562" stroke="black" stroke-linecap="round" stroke-linejoin="round"/>
<path d="M5.0625 9.00001H6.75V10.6875C6.75 11.2842 6.51295 11.8565 6.09099 12.2785C5.66903 12.7005 5.09674 12.9375 4.5 12.9375C3.90326 12.9375 3.33097 12.7005 2.90901 12.2785C2.48705 11.8565 2.25 11.2842 2.25 10.6875V7.31251C2.25008 6.76484 2.44987 6.236 2.81194 5.8251C3.17401 5.4142 3.6735 5.14944 4.2168 5.08044C4.7601 5.01144 5.30992 5.14294 5.76321 5.45029C6.21649 5.75764 6.54214 6.21975 6.67911 6.75001" stroke="black" stroke-linecap="round" stroke-linejoin="round"/>
</svg>
