<svg width="18" height="18" viewBox="0 0 18 18" fill="none" xmlns="http://www.w3.org/2000/svg">
<path d="M2.57839 12.1674L4.27906 2.52244C4.30497 2.37552 4.38817 2.24492 4.51038 2.15935C4.63258 2.07378 4.78377 2.04026 4.93069 2.06617L8.80837 2.74991C8.95529 2.77581 9.0859 2.85902 9.17147 2.98122C9.25704 3.10343 9.29056 3.25462 9.26465 3.40154L7.5553 13.0957C7.44021 13.7484 7.0737 14.33 6.53452 14.7154C5.99533 15.1008 5.32648 15.2594 4.67165 15.1571C3.26943 14.9374 2.33193 13.5652 2.57839 12.1674Z" stroke="black" stroke-linecap="round" stroke-linejoin="round"/>
<path d="M8.31662 8.77813L13.4468 6.91088C13.587 6.85985 13.7417 6.86661 13.877 6.92966C14.0122 6.9927 14.1168 7.10688 14.1678 7.24707L15.5145 10.9471C15.5398 11.0165 15.5511 11.0902 15.5479 11.164C15.5447 11.2378 15.527 11.3103 15.4957 11.3772C15.4645 11.4442 15.4204 11.5043 15.366 11.5542C15.3115 11.6041 15.2477 11.6428 15.1783 11.6681L5.92822 15.0348" stroke="black" stroke-linecap="round" stroke-linejoin="round"/>
<path d="M15.4688 11.4282V14.6251C15.4688 14.7743 15.4095 14.9174 15.304 15.0229C15.1985 15.1284 15.0554 15.1876 14.9062 15.1876H5.0625" stroke="black" stroke-linecap="round" stroke-linejoin="round"/>
<path d="M5.0625 13.5C5.52849 13.5 5.90625 13.1222 5.90625 12.6562C5.90625 12.1903 5.52849 11.8125 5.0625 11.8125C4.59651 11.8125 4.21875 12.1903 4.21875 12.6562C4.21875 13.1222 4.59651 13.5 5.0625 13.5Z" fill="black"/>
</svg>
