<svg width="18" height="18" viewBox="0 0 18 18" fill="none" xmlns="http://www.w3.org/2000/svg">
<path d="M4.4999 15.1874C4.42603 15.1874 4.35289 15.1728 4.28464 15.1446C4.21639 15.1163 4.15438 15.0749 4.10215 15.0226C4.04992 14.9704 4.00849 14.9084 3.98022 14.8401C3.95195 14.7719 3.9374 14.6988 3.9374 14.6249L3.93744 11.6229C3.63736 11.765 3.30621 11.829 2.9748 11.8087C2.64338 11.7885 2.32247 11.6848 2.0419 11.5072C1.76133 11.3297 1.53023 11.084 1.37009 10.7932C1.20995 10.5023 1.12598 10.1757 1.12598 9.84364C1.12598 9.51161 1.20995 9.18497 1.37009 8.89411C1.53023 8.60325 1.76133 8.35761 2.0419 8.18005C2.32247 8.00249 2.64338 7.89878 2.9748 7.87855C3.30621 7.85832 3.63736 7.92225 3.93744 8.06437L3.9374 5.0624C3.9374 4.98853 3.95195 4.91538 3.98022 4.84714C4.00849 4.77889 4.04992 4.71688 4.10216 4.66465C4.15439 4.61241 4.2164 4.57098 4.28465 4.54271C4.35289 4.51444 4.42604 4.49989 4.49991 4.49989L7.78312 4.49993C7.641 4.19986 7.57708 3.86871 7.5973 3.53729C7.61753 3.20588 7.72124 2.88496 7.89881 2.6044C8.07637 2.32383 8.322 2.09273 8.61286 1.93259C8.90372 1.77245 9.23036 1.68848 9.56239 1.68848C9.89442 1.68848 10.2211 1.77245 10.5119 1.93259C10.8028 2.09273 11.0484 2.32383 11.226 2.6044C11.4035 2.88496 11.5073 3.20588 11.5275 3.53729C11.5477 3.86871 11.4838 4.19986 11.3417 4.49993L14.6249 4.49989C14.7741 4.49989 14.9171 4.55915 15.0226 4.66464C15.1281 4.77013 15.1874 4.9132 15.1874 5.06239L15.1874 8.06437C14.8873 7.92225 14.5562 7.85832 14.2248 7.87855C13.8934 7.89878 13.5724 8.00249 13.2919 8.18005C13.0113 8.35761 12.7802 8.60325 12.6201 8.89411C12.4599 9.18497 12.376 9.51161 12.376 9.84364C12.376 10.1757 12.4599 10.5023 12.6201 10.7932C12.7802 11.084 13.0113 11.3297 13.2919 11.5072C13.5724 11.6848 13.8934 11.7885 14.2248 11.8087C14.5562 11.829 14.8873 11.765 15.1874 11.6229L15.1874 14.6249C15.1874 14.7741 15.1281 14.9172 15.0226 15.0226C14.9171 15.1281 14.7741 15.1874 14.6249 15.1874L4.4999 15.1874Z" stroke="black" stroke-linecap="round" stroke-linejoin="round"/>
</svg>
