<svg width="18" height="18" viewBox="0 0 18 18" fill="none" xmlns="http://www.w3.org/2000/svg">
<path d="M11.3465 3.47151C11.7685 3.04955 12.3408 2.8125 12.9375 2.8125C13.233 2.8125 13.5256 2.8707 13.7985 2.98377C14.0715 3.09684 14.3196 3.26258 14.5285 3.47151C14.7374 3.68044 14.9032 3.92848 15.0162 4.20146C15.1293 4.47444 15.1875 4.76703 15.1875 5.0625C15.1875 5.35797 15.1293 5.65056 15.0162 5.92354C14.9032 6.19652 14.7374 6.44456 14.5285 6.65349L6.65349 14.5285C6.44456 14.7374 6.19652 14.9032 5.92354 15.0162C5.65056 15.1293 5.35797 15.1875 5.0625 15.1875C4.76703 15.1875 4.47444 15.1293 4.20146 15.0162C3.92848 14.9032 3.68044 14.7374 3.47151 14.5285C3.04955 14.1065 2.8125 13.5342 2.8125 12.9375C2.8125 12.3408 3.04955 11.7685 3.47151 11.3465L11.3465 3.47151Z" stroke="black" stroke-linecap="round" stroke-linejoin="round"/>
<path d="M3.47151 6.65349C3.04955 6.23153 2.8125 5.65924 2.8125 5.0625C2.8125 4.46576 3.04955 3.89347 3.47151 3.47151C3.89347 3.04955 4.46576 2.8125 5.0625 2.8125C5.65924 2.8125 6.23153 3.04955 6.65349 3.47151L14.5285 11.3465C14.9504 11.7685 15.1875 12.3408 15.1875 12.9375C15.1875 13.5342 14.9504 14.1065 14.5285 14.5285C14.1065 14.9504 13.5342 15.1875 12.9375 15.1875C12.3408 15.1875 11.7685 14.9504 11.3465 14.5285L3.47151 6.65349Z" stroke="black" stroke-linecap="round" stroke-linejoin="round"/>
<path opacity="0.5" d="M9 9.28125C9.15533 9.28125 9.28125 9.15533 9.28125 9C9.28125 8.84467 9.15533 8.71875 9 8.71875C8.84467 8.71875 8.71875 8.84467 8.71875 9C8.71875 9.15533 8.84467 9.28125 9 9.28125Z" stroke="black" stroke-linecap="round" stroke-linejoin="round"/>
<path d="M9 9.5625C9.31066 9.5625 9.5625 9.31066 9.5625 9C9.5625 8.68934 9.31066 8.4375 9 8.4375C8.68934 8.4375 8.4375 8.68934 8.4375 9C8.4375 9.31066 8.68934 9.5625 9 9.5625Z" fill="black"/>
</svg>
