<svg width="18" height="18" viewBox="0 0 18 18" fill="none" xmlns="http://www.w3.org/2000/svg">
<path d="M11.3906 11.3906C12.7109 11.3906 13.7812 10.3203 13.7812 9C13.7812 7.67969 12.7109 6.60938 11.3906 6.60938C10.0703 6.60938 9 7.67969 9 9C9 10.3203 10.0703 11.3906 11.3906 11.3906Z" stroke="black" stroke-linecap="round" stroke-linejoin="round"/>
<path d="M9 6.60931V1.82812H6.60938C5.97534 1.82813 5.36728 2.07999 4.91895 2.52832C4.47062 2.97665 4.21875 3.58472 4.21875 4.21875C4.21875 4.85278 4.47062 5.46085 4.91895 5.90918C5.36728 6.35751 5.97534 6.60937 6.60938 6.60938L9 6.60931Z" stroke="black" stroke-linecap="round" stroke-linejoin="round"/>
<path d="M9 11.3906V6.60938H6.60938C5.97534 6.60938 5.36728 6.86124 4.91895 7.30957C4.47062 7.7579 4.21875 8.36597 4.21875 9C4.21875 9.63403 4.47062 10.2421 4.91895 10.6904C5.36728 11.1388 5.97534 11.3906 6.60938 11.3906L9 11.3906Z" stroke="black" stroke-linecap="round" stroke-linejoin="round"/>
<path d="M9 6.60931V1.82812H11.3906C12.0247 1.82813 12.6327 2.07999 13.0811 2.52832C13.5294 2.97665 13.7812 3.58472 13.7812 4.21875C13.7812 4.85278 13.5294 5.46085 13.0811 5.90918C12.6327 6.35751 12.0247 6.60937 11.3906 6.60938L9 6.60931Z" stroke="black" stroke-linecap="round" stroke-linejoin="round"/>
<path d="M9 11.3906V13.7813C9.00001 14.2541 8.85981 14.7163 8.59712 15.1094C8.33444 15.5026 7.96108 15.809 7.52425 15.99C7.08742 16.1709 6.60675 16.2182 6.14301 16.126C5.67927 16.0338 5.2533 15.8061 4.91896 15.4718C4.58462 15.1374 4.35693 14.7114 4.26469 14.2477C4.17244 13.784 4.21978 13.3033 4.40072 12.8665C4.58166 12.4296 4.88808 12.0563 5.28121 11.7936C5.67435 11.5309 6.13655 11.3907 6.60938 11.3907L9 11.3906Z" stroke="black" stroke-linecap="round" stroke-linejoin="round"/>
</svg>
