<svg width="18" height="18" viewBox="0 0 18 18" fill="none" xmlns="http://www.w3.org/2000/svg">
<path d="M10.6875 7.59375H12.9375" stroke="black" stroke-linecap="round" stroke-linejoin="round"/>
<path d="M5.0625 7.59375H7.3125" stroke="black" stroke-linecap="round" stroke-linejoin="round"/>
<path d="M6.1875 6.46875V8.71875" stroke="black" stroke-linecap="round" stroke-linejoin="round"/>
<path d="M12.0949 3.91943L5.90646 3.93773C5.04683 3.93779 4.2147 4.24065 3.55614 4.79314C2.89757 5.34563 2.45466 6.11244 2.30516 6.95897L2.30576 6.95908L1.15513 12.8768C1.08246 13.2891 1.14312 13.7139 1.32832 14.0894C1.51351 14.4649 1.81359 14.7716 2.18498 14.9649C2.55636 15.1583 2.97971 15.2282 3.39354 15.1645C3.80736 15.1009 4.19012 14.9069 4.48621 14.6109L4.48609 14.6108L7.52609 11.2502L12.0949 11.2319C13.0646 11.2319 13.9946 10.8467 14.6803 10.161C15.366 9.47536 15.7512 8.54538 15.7512 7.57568C15.7512 6.60599 15.366 5.676 14.6803 4.99032C13.9946 4.30464 13.0646 3.91943 12.0949 3.91943V3.91943Z" stroke="black" stroke-linecap="round" stroke-linejoin="round"/>
<path d="M15.6957 6.94043L16.8454 12.8764C16.9181 13.2888 16.8574 13.7135 16.6722 14.0891C16.487 14.4646 16.187 14.7713 15.8156 14.9646C15.4442 15.1579 15.0208 15.2278 14.607 15.1642C14.1932 15.1005 13.8104 14.9066 13.5143 14.6105L13.5145 14.6104L10.4766 11.2381" stroke="black" stroke-linecap="round" stroke-linejoin="round"/>
</svg>
