<svg width="18" height="18" viewBox="0 0 18 18" fill="none" xmlns="http://www.w3.org/2000/svg">
<path d="M9 15.75C12.7279 15.75 15.75 12.7279 15.75 9C15.75 5.27208 12.7279 2.25 9 2.25C5.27208 2.25 2.25 5.27208 2.25 9C2.25 12.7279 5.27208 15.75 9 15.75Z" stroke="black" stroke-linecap="round" stroke-linejoin="round"/>
<path d="M12.375 14.8473V12.375C12.375 12.2258 12.3157 12.0827 12.2102 11.9773C12.1048 11.8718 11.9617 11.8125 11.8125 11.8125H6.1875C6.03832 11.8125 5.89524 11.8718 5.78975 11.9773C5.68426 12.0827 5.625 12.2258 5.625 12.375V14.8475" stroke="black" stroke-linecap="round" stroke-linejoin="round"/>
<path d="M6.75 11.8125V10.125C6.75 9.97582 6.80926 9.83274 6.91475 9.72725C7.02024 9.62176 7.16332 9.5625 7.3125 9.5625H10.6875C10.8367 9.5625 10.9798 9.62176 11.0852 9.72725C11.1907 9.83274 11.25 9.97582 11.25 10.125V11.8125" stroke="black" stroke-linecap="round" stroke-linejoin="round"/>
<path d="M10.3948 9.5625L9.55055 5.51028C9.42616 4.91324 8.57358 4.91324 8.44919 5.51028L7.60498 9.5625" stroke="black" stroke-linecap="round" stroke-linejoin="round"/>
</svg>
