<svg width="18" height="18" viewBox="0 0 18 18" fill="none" xmlns="http://www.w3.org/2000/svg">
<path d="M6.61346 12.9772C5.81797 15.3637 2.63599 15.3637 2.63599 15.3637C2.63599 15.3637 2.63599 12.1817 5.02247 11.3862" stroke="black" stroke-linecap="round" stroke-linejoin="round"/>
<path d="M13.7728 7.40904L8.99985 12.182L5.81787 9.00003L10.5908 4.22706C12.3982 2.41974 14.2055 2.43737 14.9763 2.55236C15.0949 2.57006 15.2048 2.6254 15.2896 2.71024C15.3745 2.79509 15.4298 2.90494 15.4475 3.02362C15.5625 3.79439 15.5801 5.60172 13.7728 7.40904Z" stroke="black" stroke-linecap="round" stroke-linejoin="round"/>
<path d="M12.9775 8.20459V12.7446C12.9775 12.8184 12.9629 12.8916 12.9347 12.9598C12.9064 13.0281 12.865 13.0901 12.8127 13.1423L10.5387 15.4163C10.4667 15.4883 10.3765 15.5394 10.2778 15.5642C10.179 15.589 10.0754 15.5865 9.97794 15.557C9.8805 15.5275 9.79289 15.4721 9.72446 15.3967C9.65603 15.3213 9.60934 15.2287 9.58937 15.1289L9 12.1821" stroke="black" stroke-linecap="round" stroke-linejoin="round"/>
<path d="M9.79545 5.02246H5.25548C5.18161 5.02246 5.10846 5.03701 5.04022 5.06528C4.97197 5.09355 4.90996 5.13498 4.85773 5.18721L2.5837 7.46124C2.51171 7.53324 2.4606 7.62342 2.43584 7.72217C2.41107 7.82093 2.41358 7.92455 2.44308 8.02199C2.47258 8.11944 2.52798 8.20705 2.60337 8.27548C2.67875 8.34391 2.7713 8.3906 2.87113 8.41057L5.81798 8.99994" stroke="black" stroke-linecap="round" stroke-linejoin="round"/>
</svg>
