<svg width="18" height="18" viewBox="0 0 18 18" fill="none" xmlns="http://www.w3.org/2000/svg">
<path d="M15.1875 3.375H2.8125C2.50184 3.375 2.25 3.62684 2.25 3.9375V14.0625C2.25 14.3732 2.50184 14.625 2.8125 14.625H15.1875C15.4982 14.625 15.75 14.3732 15.75 14.0625V3.9375C15.75 3.62684 15.4982 3.375 15.1875 3.375Z" stroke="black" stroke-linecap="round" stroke-linejoin="round"/>
<path d="M2.25 11.8124L5.78974 8.27266C5.84198 8.22043 5.90398 8.179 5.97223 8.15073C6.04048 8.12246 6.11362 8.10791 6.18749 8.10791C6.26136 8.10791 6.3345 8.12246 6.40275 8.15073C6.471 8.179 6.533 8.22043 6.58524 8.27266L9.72724 11.4147C9.77948 11.4669 9.84148 11.5083 9.90973 11.5366C9.97798 11.5649 10.0511 11.5794 10.125 11.5794C10.1989 11.5794 10.272 11.5649 10.3402 11.5366C10.4085 11.5083 10.4705 11.4669 10.5227 11.4147L11.9772 9.96016C12.0295 9.90793 12.0915 9.8665 12.1597 9.83823C12.228 9.80996 12.3011 9.79541 12.375 9.79541C12.4489 9.79541 12.522 9.80996 12.5902 9.83823C12.6585 9.8665 12.7205 9.90793 12.7727 9.96016L15.75 12.9374" stroke="black" stroke-linecap="round" stroke-linejoin="round"/>
<path d="M10.9688 7.875C11.4347 7.875 11.8125 7.49724 11.8125 7.03125C11.8125 6.56526 11.4347 6.1875 10.9688 6.1875C10.5028 6.1875 10.125 6.56526 10.125 7.03125C10.125 7.49724 10.5028 7.875 10.9688 7.875Z" fill="black"/>
</svg>
