<svg width="18" height="18" viewBox="0 0 18 18" fill="none" xmlns="http://www.w3.org/2000/svg">
<path d="M2.81201 2.81201V15.187" stroke="black" stroke-linecap="round" stroke-linejoin="round"/>
<path d="M12.375 3.9375H5.625C5.31434 3.9375 5.0625 4.18934 5.0625 4.5V7.3125C5.0625 7.62316 5.31434 7.875 5.625 7.875H12.375C12.6857 7.875 12.9375 7.62316 12.9375 7.3125V4.5C12.9375 4.18934 12.6857 3.9375 12.375 3.9375Z" stroke="black" stroke-linecap="round" stroke-linejoin="round"/>
<path d="M15.1875 10.125H5.625C5.31434 10.125 5.0625 10.3768 5.0625 10.6875V13.5C5.0625 13.8107 5.31434 14.0625 5.625 14.0625H15.1875C15.4982 14.0625 15.75 13.8107 15.75 13.5V10.6875C15.75 10.3768 15.4982 10.125 15.1875 10.125Z" stroke="black" stroke-linecap="round" stroke-linejoin="round"/>
</svg>
