<svg width="14" height="14" viewBox="0 0 14 14" fill="none" xmlns="http://www.w3.org/2000/svg">
<path d="M7.00024 11.8125C7.00024 11.8125 1.53149 8.75 1.53149 5.03125C1.53161 4.37398 1.75935 3.73704 2.17601 3.22871C2.59267 2.72038 3.17253 2.37204 3.81699 2.24293C4.46145 2.11381 5.13074 2.21188 5.71107 2.52046C6.2914 2.82904 6.74694 3.32909 7.00025 3.93559L7.00024 3.93559C7.25354 3.3291 7.70909 2.82905 8.28942 2.52046C8.86974 2.21188 9.53903 2.11381 10.1835 2.24293C10.828 2.37204 11.4078 2.72038 11.8245 3.22871C12.2411 3.73704 12.4689 4.37398 12.469 5.03125C12.469 8.75 7.00024 11.8125 7.00024 11.8125Z" stroke="black" stroke-linecap="round" stroke-linejoin="round"/>
</svg>
