<svg width="18" height="18" viewBox="0 0 18 18" fill="none" xmlns="http://www.w3.org/2000/svg">
<path d="M13.7815 15.1875C14.8688 15.1875 15.7502 14.3061 15.7502 13.2188C15.7502 12.1314 14.8688 11.25 13.7815 11.25C12.6942 11.25 11.8127 12.1314 11.8127 13.2188C11.8127 14.3061 12.6942 15.1875 13.7815 15.1875Z" stroke="black" stroke-linecap="round" stroke-linejoin="round"/>
<path d="M13.7814 11.25L13.7813 8.42914C13.7813 7.53408 13.4257 6.67569 12.7928 6.04279L10.125 3.375" stroke="black" stroke-linecap="round" stroke-linejoin="round"/>
<path d="M10.125 6.1875V3.375H12.9375" stroke="black" stroke-linecap="round" stroke-linejoin="round"/>
<path d="M4.21875 6.75C5.30606 6.75 6.1875 5.86856 6.1875 4.78125C6.1875 3.69394 5.30606 2.8125 4.21875 2.8125C3.13144 2.8125 2.25 3.69394 2.25 4.78125C2.25 5.86856 3.13144 6.75 4.21875 6.75Z" stroke="black" stroke-linecap="round" stroke-linejoin="round"/>
<path d="M4.21875 6.75L4.21886 9.57086C4.2189 10.4659 4.57448 11.3243 5.20738 11.9572L7.87517 14.625" stroke="black" stroke-linecap="round" stroke-linejoin="round"/>
<path d="M7.87524 11.8125V14.625H5.06274" stroke="black" stroke-linecap="round" stroke-linejoin="round"/>
</svg>
