<svg width="18" height="18" viewBox="0 0 18 18" fill="none" xmlns="http://www.w3.org/2000/svg">
<path d="M8.15625 11.25C8.9329 11.25 9.5625 10.6204 9.5625 9.84375C9.5625 9.0671 8.9329 8.4375 8.15625 8.4375C7.3796 8.4375 6.75 9.0671 6.75 9.84375C6.75 10.6204 7.3796 11.25 8.15625 11.25Z" stroke="black" stroke-linecap="round" stroke-linejoin="round"/>
<path d="M2.25049 15.7505L7.16196 10.8384" stroke="black" stroke-linecap="round" stroke-linejoin="round"/>
<path d="M2.25049 15.75L12.0553 14.1159C12.1526 14.0996 12.244 14.0581 12.3202 13.9954C12.3964 13.9326 12.4548 13.851 12.4895 13.7585L14.063 9.5625L8.43799 3.9375L4.24196 5.51101C4.14954 5.54567 4.06786 5.60404 4.00513 5.68026C3.94241 5.75648 3.90085 5.84786 3.88462 5.94523L2.25049 15.75Z" stroke="black" stroke-linecap="round" stroke-linejoin="round"/>
<path d="M14.063 9.5629L15.9152 7.71065C15.9675 7.65842 16.0089 7.59641 16.0372 7.52816C16.0654 7.45992 16.08 7.38677 16.08 7.3129C16.08 7.23903 16.0654 7.16589 16.0372 7.09764C16.0089 7.0294 15.9675 6.96739 15.9152 6.91516L11.0857 2.08565C10.9802 1.98016 10.8372 1.9209 10.688 1.9209C10.5388 1.9209 10.3957 1.98016 10.2902 2.08565L8.43799 3.9379" stroke="black" stroke-linecap="round" stroke-linejoin="round"/>
</svg>
