<svg width="226" height="226" viewBox="0 0 226 226" fill="none" xmlns="http://www.w3.org/2000/svg">
<g filter="url(#filter0_d)">
<rect x="112.895" y="5.82843" width="150" height="150" rx="14" transform="rotate(45 112.895 5.82843)" fill="white" stroke="#5D6398" stroke-width="4"/>
<g opacity="0.6">
<path d="M81.3135 76.1614C82.0859 75.389 81.9314 74.3077 81.3135 73.6898C80.5411 72.9174 79.4598 73.0719 78.8419 73.6898C78.0695 74.4622 78.224 75.5435 78.8419 76.1614C79.6143 76.9338 80.5411 76.9338 81.3135 76.1614Z" fill="#5D6398"/>
<path d="M75.1348 69.9828C75.9072 69.2104 75.7527 68.1291 75.1348 67.5112C74.3624 66.7388 73.2811 66.8933 72.6632 67.5112C71.8908 68.2836 72.0453 69.3649 72.6632 69.9828C73.4355 70.7552 74.3624 70.7552 75.1348 69.9828Z" fill="#5D6398"/>
<path d="M111.591 106.439C111.9 106.13 111.9 105.512 111.591 105.203C111.282 104.894 110.664 104.894 110.355 105.203C110.046 105.512 110.046 106.13 110.355 106.439C110.664 106.748 111.282 106.748 111.591 106.439Z" fill="#5D6398"/>
<path d="M111.591 156.33C111.9 156.021 111.9 155.403 111.591 155.094C111.282 154.785 110.664 154.785 110.355 155.094C110.046 155.403 110.046 156.021 110.355 156.33C110.664 156.639 111.282 156.639 111.591 156.33Z" fill="#5D6398"/>
<path d="M87.3386 82.1858C87.9565 81.5679 87.9565 80.6411 87.3386 80.0232C86.7207 79.4053 85.7938 79.4053 85.1759 80.0232C84.558 80.6411 84.558 81.5679 85.1759 82.1858C85.7938 82.8037 86.7207 82.8037 87.3386 82.1858Z" fill="#5D6398"/>
<path d="M81.3135 63.8033C82.0859 63.0309 81.9314 61.9495 81.3135 61.3316C80.5411 60.5592 79.4598 60.7137 78.8419 61.3316C78.224 61.9495 78.224 63.1853 78.8419 63.8032C79.6143 64.5756 80.5411 64.5756 81.3135 63.8033Z" fill="#5D6398"/>
<path d="M93.5178 88.3651C94.1357 87.7472 94.1357 86.8203 93.5178 86.2024C92.8999 85.5845 91.973 85.5845 91.3551 86.2024C90.7372 86.8203 90.7372 87.7472 91.3551 88.3651C91.973 88.983 92.8999 88.983 93.5178 88.3651Z" fill="#5D6398"/>
<path d="M99.5419 94.3895C100.005 93.9261 100.16 93.1537 99.5419 92.5358C99.0785 92.0724 98.3061 91.9179 97.6882 92.5358C97.2248 92.9992 97.0703 93.7716 97.6882 94.3895C98.1516 94.8529 99.0785 94.8529 99.5419 94.3895Z" fill="#5D6398"/>
<path d="M105.721 100.568C106.185 100.105 106.339 99.3326 105.721 98.7147C105.103 98.0968 104.485 98.0968 103.867 98.7147C103.404 99.1781 103.249 99.9505 103.867 100.568C104.485 101.186 105.258 101.032 105.721 100.568Z" fill="#5D6398"/>
<path d="M57.061 126.057C57.9879 125.131 57.9879 123.586 57.061 122.659C56.1342 121.732 54.5894 121.732 53.6625 122.659C52.7357 123.586 52.7357 125.131 53.6625 126.057C54.5894 126.984 56.1342 126.984 57.061 126.057V126.057Z" fill="#5D6398"/>
<path d="M63.0856 132.082C63.858 131.309 64.0125 129.919 63.0856 128.992C62.1587 128.065 60.9229 128.065 59.9961 128.992C59.2237 129.765 59.0692 131.155 59.9961 132.082C60.9229 133.009 62.3132 132.854 63.0856 132.082Z" fill="#5D6398"/>
<path d="M66.1753 135.171C65.3221 136.024 65.3221 137.408 66.1753 138.261C67.0284 139.114 68.4117 139.114 69.2648 138.261C70.118 137.408 70.118 136.024 69.2648 135.171C68.4117 134.318 67.0284 134.318 66.1753 135.171Z" fill="#5D6398"/>
<path d="M50.8823 119.878C51.8092 118.951 51.8092 117.407 50.8823 116.48C49.9554 115.553 48.4107 115.553 47.4838 116.48C46.557 117.407 46.557 118.951 47.4838 119.878C48.4107 120.805 49.9554 120.805 50.8823 119.878V119.878Z" fill="#5D6398"/>
<path d="M75.1348 144.131C75.9072 143.359 75.7527 142.277 75.1348 141.659C74.3624 140.887 73.2811 141.041 72.6632 141.659C71.8908 142.432 72.0453 143.513 72.6632 144.131C73.4355 144.903 74.3624 144.903 75.1348 144.131Z" fill="#5D6398"/>
<path d="M38.678 107.675C39.7594 106.594 39.6049 104.894 38.678 103.967C37.5967 102.886 35.8975 103.041 34.9706 103.967C34.0437 104.894 34.0437 106.748 34.9706 107.675C36.0519 108.756 37.5967 108.756 38.678 107.675Z" fill="#5D6398"/>
<path d="M32.808 114.163C34.0438 112.927 34.0438 111.073 32.808 109.837C31.5722 108.602 29.7185 108.602 28.4827 109.837C27.2469 111.073 27.2469 112.927 28.4827 114.163C29.7185 115.398 31.5722 115.398 32.808 114.163Z" fill="#5D6398"/>
<path d="M57.061 138.415C57.9879 137.488 57.9879 135.944 57.061 135.017C56.1342 134.09 54.5894 134.09 53.6625 135.017C52.7357 135.944 52.7357 137.488 53.6625 138.415C54.5894 139.342 56.1342 139.342 57.061 138.415Z" fill="#5D6398"/>
<path d="M81.3135 150.31C82.0859 149.538 81.9314 148.456 81.3135 147.839C80.6956 147.221 79.4598 147.221 78.8419 147.839C78.0695 148.611 78.224 149.692 78.8419 150.31C79.4598 150.928 80.5411 151.083 81.3135 150.31Z" fill="#5D6398"/>
<path d="M81.3135 163.041C82.0859 162.269 81.9314 161.187 81.3135 160.569C80.6956 159.951 79.4598 159.951 78.8419 160.569C78.0695 161.342 78.224 162.423 78.8419 163.041C79.4598 163.659 80.5411 163.813 81.3135 163.041Z" fill="#5D6398"/>
<path d="M63.0856 144.44C63.858 143.668 64.0125 142.277 63.0856 141.35C62.1587 140.424 60.9229 140.424 59.9961 141.35C59.0692 142.277 59.0692 143.513 59.9961 144.44C60.9229 145.367 62.3132 145.212 63.0856 144.44Z" fill="#5D6398"/>
<path d="M50.8823 132.236C51.8092 131.309 51.8092 129.765 50.8823 128.838C49.9554 127.911 48.4107 127.911 47.4838 128.838C46.557 129.765 46.557 131.309 47.4838 132.236C48.4107 133.163 49.9554 133.163 50.8823 132.236Z" fill="#5D6398"/>
<path d="M69.2648 150.619C70.0372 149.847 70.1917 148.456 69.2648 147.53C68.4924 146.757 67.1021 146.603 66.1753 147.53C65.2484 148.456 65.2484 149.692 66.1753 150.619C66.9477 151.392 68.4924 151.392 69.2648 150.619Z" fill="#5D6398"/>
<path d="M44.8572 126.212C45.9386 125.131 45.7841 123.431 44.8572 122.504C43.7759 121.423 42.0766 121.578 41.1498 122.504C40.2229 123.431 40.2229 125.285 41.1498 126.212C42.2311 127.293 43.7759 127.293 44.8572 126.212Z" fill="#5D6398"/>
<path d="M38.678 120.033C39.7594 118.951 39.6049 117.252 38.678 116.325C37.7512 115.398 35.8975 115.398 34.9706 116.325C34.0437 117.252 34.0437 119.106 34.9706 120.033C35.8975 120.959 37.5967 121.114 38.678 120.033Z" fill="#5D6398"/>
<path d="M105.721 51.1362C106.185 50.6727 106.339 49.9004 105.721 49.2825C105.103 48.6646 104.485 48.6646 103.867 49.2825C103.404 49.7459 103.249 50.5183 103.867 51.1362C104.485 51.7541 105.258 51.5996 105.721 51.1362V51.1362Z" fill="#5D6398"/>
<path d="M99.5419 44.9573C100.005 44.4939 100.16 43.7215 99.5419 43.1036C99.0785 42.6401 98.3061 42.4857 97.6882 43.1036C97.2248 43.567 97.0703 44.3394 97.6882 44.9573C98.1516 45.4207 99.0785 45.4207 99.5419 44.9573Z" fill="#5D6398"/>
<path d="M105.721 63.4943C106.185 63.0309 106.339 62.2585 105.721 61.6406C105.258 61.1772 104.485 61.0227 103.867 61.6406C103.404 62.104 103.249 62.8764 103.867 63.4943C104.331 63.9577 105.258 63.9577 105.721 63.4943Z" fill="#5D6398"/>
<path d="M105.721 38.7777C106.185 38.3143 106.339 37.5419 105.721 36.924C105.258 36.4605 104.485 36.3061 103.867 36.924C103.249 37.5419 103.249 38.1598 103.867 38.7777C104.331 39.2411 105.258 39.2411 105.721 38.7777Z" fill="#5D6398"/>
<path d="M111.591 69.3649C111.9 69.056 111.9 68.4381 111.591 68.1291C111.282 67.8202 110.664 67.8202 110.355 68.1291C110.046 68.4381 110.046 69.056 110.355 69.3649C110.664 69.6739 111.282 69.6739 111.591 69.3649Z" fill="#5D6398"/>
<path d="M110.355 55.7706C110.014 56.1119 110.014 56.6652 110.355 57.0064C110.697 57.3477 111.25 57.3477 111.591 57.0065C111.932 56.6652 111.932 56.1119 111.591 55.7706C111.25 55.4294 110.697 55.4294 110.355 55.7706Z" fill="#5D6398"/>
<path d="M111.591 44.6483C111.9 44.3394 111.9 43.7215 111.591 43.4125C111.282 43.1036 110.664 43.1036 110.355 43.4125C110.046 43.7215 110.046 44.3394 110.355 44.6483C110.664 44.9573 111.282 44.9573 111.591 44.6483Z" fill="#5D6398"/>
<path d="M111.591 32.2905C111.9 31.9816 111.9 31.3637 111.591 31.0547C111.282 30.7457 110.664 30.7457 110.355 31.0547C110.046 31.3636 110.046 31.9816 110.355 32.2905C110.664 32.5995 111.282 32.5995 111.591 32.2905V32.2905Z" fill="#5D6398"/>
<path d="M110.355 92.8447C110.014 93.186 110.014 93.7393 110.355 94.0806C110.697 94.4218 111.25 94.4218 111.591 94.0806C111.932 93.7393 111.932 93.186 111.591 92.8447C111.25 92.5035 110.697 92.5035 110.355 92.8447Z" fill="#5D6398"/>
<path d="M103.867 86.3569C103.355 86.8688 103.355 87.6987 103.867 88.2106C104.379 88.7225 105.209 88.7225 105.721 88.2106C106.233 87.6987 106.233 86.8688 105.721 86.3569C105.209 85.845 104.379 85.845 103.867 86.3569Z" fill="#5D6398"/>
<path d="M91.3551 73.8439C90.7579 74.4411 90.7579 75.4094 91.3551 76.0066C91.9523 76.6038 92.9206 76.6038 93.5178 76.0066C94.115 75.4094 94.115 74.4411 93.5178 73.8439C92.9206 73.2467 91.9523 73.2467 91.3551 73.8439Z" fill="#5D6398"/>
<path d="M87.3386 57.4699C87.9565 56.852 87.9565 55.9252 87.3386 55.3073C86.7207 54.6893 85.7938 54.6894 85.1759 55.3073C84.558 55.9252 84.558 56.852 85.1759 57.4699C85.7938 58.0878 86.7207 58.0878 87.3386 57.4699Z" fill="#5D6398"/>
<path d="M99.5419 82.0313C100.005 81.5679 100.16 80.7955 99.5419 80.1776C99.0785 79.7142 98.3061 79.5597 97.6882 80.1776C97.0703 80.7955 97.0703 81.4134 97.6882 82.0313C98.1516 82.4948 99.0785 82.4948 99.5419 82.0313Z" fill="#5D6398"/>
<path d="M93.5178 63.6488C94.1357 63.0309 94.1357 62.104 93.5178 61.4861C92.8999 60.8682 91.973 60.8682 91.3551 61.4861C90.7372 62.1041 90.7372 63.0309 91.3551 63.6488C91.973 64.2667 92.8999 64.2667 93.5178 63.6488Z" fill="#5D6398"/>
<path d="M99.5419 57.3151C100.005 56.8516 100.16 56.0793 99.5419 55.4614C98.924 54.8435 98.3061 54.8435 97.6882 55.4614C97.2247 55.9248 97.0703 56.6972 97.6882 57.3151C98.3061 57.933 99.0785 57.7785 99.5419 57.3151V57.3151Z" fill="#5D6398"/>
<path d="M85.1759 67.6654C84.5787 68.2626 84.5787 69.2308 85.1759 69.828C85.7731 70.4252 86.7414 70.4252 87.3386 69.828C87.9358 69.2308 87.9358 68.2626 87.3386 67.6654C86.7414 67.0682 85.7731 67.0682 85.1759 67.6654Z" fill="#5D6398"/>
<path d="M93.5178 51.2907C94.1357 50.6728 94.1357 49.7459 93.5178 49.128C92.8999 48.5101 91.973 48.5101 91.3551 49.128C90.7372 49.7459 90.7372 50.6728 91.3551 51.2907C91.973 51.9086 92.8999 51.9086 93.5178 51.2907Z" fill="#5D6398"/>
<path d="M111.591 81.7227C111.9 81.4138 111.9 80.7959 111.591 80.4869C111.282 80.178 110.664 80.178 110.355 80.4869C110.046 80.7959 110.046 81.4138 110.355 81.7227C110.664 82.0317 111.282 82.0317 111.591 81.7227Z" fill="#5D6398"/>
<path d="M99.5419 69.6736C100.005 69.2101 100.16 68.4378 99.5419 67.8198C99.0785 67.3564 98.3061 67.2019 97.6882 67.8198C97.2248 68.2833 97.0703 69.0557 97.6882 69.6736C98.1516 70.137 99.0785 70.137 99.5419 69.6736Z" fill="#5D6398"/>
<path d="M105.721 75.8521C106.185 75.3887 106.339 74.6163 105.721 73.9984C105.258 73.535 104.485 73.3805 103.867 73.9984C103.404 74.4618 103.249 75.2342 103.867 75.8521C104.331 76.3155 105.258 76.3155 105.721 75.8521Z" fill="#5D6398"/>
<path d="M110.355 117.561C110.014 117.902 110.014 118.456 110.355 118.797C110.697 119.138 111.25 119.138 111.591 118.797C111.932 118.456 111.932 117.902 111.591 117.561C111.25 117.22 110.697 117.22 110.355 117.561Z" fill="#5D6398"/>
<path d="M110.355 167.452C110.014 167.794 110.014 168.347 110.355 168.688C110.697 169.029 111.25 169.029 111.591 168.688C111.932 168.347 111.932 167.794 111.591 167.452C111.25 167.111 110.697 167.111 110.355 167.452Z" fill="#5D6398"/>
<path d="M50.8823 95.1619C51.8092 94.235 51.8092 92.6903 50.8823 91.7634C49.9554 90.8365 48.4107 90.8365 47.4838 91.7634C46.557 92.6903 46.557 94.235 47.4838 95.1619C48.4107 96.0887 49.9554 96.0887 50.8823 95.1619Z" fill="#5D6398"/>
<path d="M59.9961 91.9179C59.1429 92.771 59.1429 94.1543 59.9961 95.0074C60.8492 95.8606 62.2325 95.8606 63.0856 95.0074C63.9388 94.1543 63.9388 92.771 63.0856 91.9179C62.2325 91.0647 60.8492 91.0647 59.9961 91.9179Z" fill="#5D6398"/>
<path d="M63.0856 107.366C63.858 106.593 64.0125 105.203 63.0856 104.276C62.1587 103.349 60.9229 103.349 59.9961 104.276C59.2237 105.049 59.0692 106.439 59.9961 107.366C60.9229 108.293 62.3132 108.138 63.0856 107.366Z" fill="#5D6398"/>
<path d="M57.0615 88.983C57.9884 88.0561 57.9884 86.5114 57.0615 85.5845C56.1346 84.6577 54.5899 84.6577 53.663 85.5845C52.7362 86.5114 52.7362 88.0561 53.663 88.983C54.5899 89.9098 56.1346 89.9098 57.0615 88.983Z" fill="#5D6398"/>
<path d="M57.061 101.341C57.9879 100.414 57.9879 98.8692 57.061 97.9423C56.1342 97.0154 54.5894 97.0154 53.6625 97.9423C52.7357 98.8692 52.7357 100.414 53.6625 101.341C54.5894 102.268 56.1342 102.268 57.061 101.341V101.341Z" fill="#5D6398"/>
<path d="M69.2648 113.545C70.0372 112.772 70.1917 111.382 69.2648 110.455C68.3379 109.528 67.1021 109.528 66.1753 110.455C65.4029 111.228 65.2484 112.618 66.1753 113.545C67.1021 114.472 68.4924 114.317 69.2648 113.545Z" fill="#5D6398"/>
<path d="M111.591 143.513C111.9 143.204 111.9 142.586 111.591 142.277C111.282 141.968 110.664 141.968 110.355 142.277C110.046 142.586 110.046 143.204 110.355 143.513C110.664 143.822 111.282 143.822 111.591 143.513Z" fill="#5D6398"/>
<path d="M111.591 193.405C111.9 193.096 111.9 192.478 111.591 192.169C111.282 191.86 110.664 191.86 110.355 192.169C110.046 192.478 110.046 193.096 110.355 193.405C110.664 193.714 111.282 193.714 111.591 193.405Z" fill="#5D6398"/>
<path d="M75.1348 107.057C75.9072 106.285 75.7527 105.203 75.1348 104.585C74.5169 103.967 73.2811 103.967 72.6632 104.585C71.8908 105.358 72.0453 106.439 72.6632 107.057C73.2811 107.675 74.3624 107.829 75.1348 107.057Z" fill="#5D6398"/>
<path d="M99.5419 131.464C100.005 131 100.16 130.228 99.5419 129.61C98.924 128.992 98.3061 128.992 97.6882 129.61C97.0703 130.228 97.0703 130.846 97.6882 131.464C98.3061 132.082 99.0785 131.927 99.5419 131.464Z" fill="#5D6398"/>
<path d="M99.5419 143.657C100.005 143.193 100.16 142.421 99.5419 141.803C98.924 141.185 98.3061 141.185 97.6882 141.803C97.0703 142.421 97.0703 143.039 97.6882 143.657C98.3061 144.275 99.0785 144.12 99.5419 143.657Z" fill="#5D6398"/>
<path d="M105.721 137.643C106.185 137.179 106.339 136.407 105.721 135.789C105.258 135.326 104.485 135.171 103.867 135.789C103.249 136.407 103.249 137.025 103.867 137.643C104.331 138.106 105.258 138.106 105.721 137.643Z" fill="#5D6398"/>
<path d="M105.721 175.174C106.185 174.71 106.339 173.938 105.721 173.32C105.258 172.857 104.485 172.702 103.867 173.32C103.249 173.938 103.249 174.556 103.867 175.174C104.331 175.637 105.258 175.637 105.721 175.174Z" fill="#5D6398"/>
<path d="M105.721 187.371C106.185 186.908 106.339 186.135 105.721 185.517C105.258 185.054 104.485 184.899 103.867 185.517C103.249 186.135 103.249 186.753 103.867 187.371C104.331 187.834 105.258 187.834 105.721 187.371Z" fill="#5D6398"/>
<path d="M81.3135 113.236C82.0859 112.463 81.9314 111.382 81.3135 110.764C80.6956 110.146 79.4598 110.146 78.8419 110.764C78.0695 111.537 78.224 112.618 78.8419 113.236C79.4598 113.854 80.5411 114.008 81.3135 113.236Z" fill="#5D6398"/>
<path d="M87.3386 119.26C87.9565 118.642 87.9565 117.715 87.3386 117.098C86.7207 116.48 85.7938 116.48 85.1759 117.098C84.558 117.715 84.558 118.642 85.1759 119.26C85.7938 119.878 86.7207 119.878 87.3386 119.26Z" fill="#5D6398"/>
<path d="M93.5178 125.439C94.1357 124.822 94.1357 123.895 93.5178 123.277C92.8999 122.659 91.973 122.659 91.3551 123.277C90.7372 123.895 90.7372 124.822 91.3551 125.439C91.973 126.057 92.8999 126.057 93.5178 125.439Z" fill="#5D6398"/>
<path d="M75.1348 119.415C75.9072 118.642 75.7527 117.561 75.1348 116.943C74.5169 116.325 73.2811 116.325 72.6632 116.943C71.8908 117.715 72.0452 118.797 72.6632 119.415C73.2811 120.033 74.3624 120.187 75.1348 119.415Z" fill="#5D6398"/>
<path d="M75.1348 156.241C75.9072 155.468 75.7527 154.387 75.1348 153.769C74.5169 153.151 73.2811 153.151 72.6632 153.769C71.8908 154.541 72.0452 155.623 72.6632 156.241C73.2811 156.858 74.3624 157.013 75.1348 156.241Z" fill="#5D6398"/>
<path d="M91.3551 172.709C90.7579 173.306 90.7579 174.274 91.3551 174.872C91.9523 175.469 92.9206 175.469 93.5178 174.872C94.115 174.274 94.115 173.306 93.5178 172.709C92.9206 172.112 91.9523 172.112 91.3551 172.709Z" fill="#5D6398"/>
<path d="M99.5419 156.18C100.005 155.716 100.16 154.944 99.5419 154.326C98.924 153.708 98.3061 153.708 97.6882 154.326C97.2247 154.789 97.0703 155.562 97.6882 156.18C98.3061 156.797 99.0785 156.643 99.5419 156.18Z" fill="#5D6398"/>
<path d="M99.5419 168.914C100.005 168.45 100.16 167.678 99.5419 167.06C98.924 166.442 98.3061 166.442 97.6882 167.06C97.2247 167.524 97.0703 168.296 97.6882 168.914C98.3061 169.532 99.0785 169.377 99.5419 168.914Z" fill="#5D6398"/>
<path d="M85.1759 166.53C84.5787 167.127 84.5787 168.096 85.1759 168.693C85.7731 169.29 86.7414 169.29 87.3386 168.693C87.9358 168.096 87.9358 167.127 87.3386 166.53C86.7414 165.933 85.7731 165.933 85.1759 166.53Z" fill="#5D6398"/>
<path d="M87.3386 131.618C87.9565 131 87.9565 130.074 87.3386 129.456C86.7207 128.838 85.7938 128.838 85.1759 129.456C84.558 130.074 84.558 131 85.1759 131.618C85.7938 132.236 86.7207 132.236 87.3386 131.618Z" fill="#5D6398"/>
<path d="M93.5178 137.797C94.1357 137.179 94.1357 136.253 93.5178 135.635C92.8999 135.017 91.973 135.017 91.3551 135.635C90.7372 136.253 90.7372 137.179 91.3551 137.797C91.973 138.415 92.8999 138.415 93.5178 137.797Z" fill="#5D6398"/>
<path d="M93.5178 149.949C94.1357 149.331 94.1357 148.404 93.5178 147.786C92.8999 147.168 91.973 147.168 91.3551 147.786C90.7372 148.404 90.7372 149.331 91.3551 149.949C91.973 150.566 92.8999 150.566 93.5178 149.949Z" fill="#5D6398"/>
<path d="M93.5178 162.514C94.1357 161.896 94.1357 160.969 93.5178 160.351C92.8999 159.733 91.973 159.733 91.3551 160.351C90.7372 160.969 90.7372 161.896 91.3551 162.514C91.973 163.131 92.8999 163.131 93.5178 162.514Z" fill="#5D6398"/>
<path d="M99.5419 180.896C100.005 180.433 100.16 179.661 99.5419 179.043C99.0785 178.579 98.3061 178.425 97.6882 179.043C97.0703 179.661 97.0703 180.279 97.6882 180.896C98.1516 181.36 99.0785 181.36 99.5419 180.896Z" fill="#5D6398"/>
<path d="M105.721 112.926C106.185 112.463 106.339 111.69 105.721 111.072C105.258 110.609 104.485 110.455 103.867 111.072C103.249 111.69 103.249 112.308 103.867 112.926C104.331 113.39 105.258 113.39 105.721 112.926Z" fill="#5D6398"/>
<path d="M105.721 150.457C106.185 149.993 106.339 149.221 105.721 148.603C105.258 148.14 104.485 147.985 103.867 148.603C103.249 149.221 103.249 149.839 103.867 150.457C104.331 150.92 105.258 150.92 105.721 150.457Z" fill="#5D6398"/>
<path d="M87.3386 94.544C87.9565 93.926 87.9565 92.9992 87.3386 92.3813C86.7207 91.7634 85.7938 91.7634 85.1759 92.3813C84.558 92.9992 84.558 93.926 85.1759 94.544C85.7938 95.1619 86.7207 95.1619 87.3386 94.544Z" fill="#5D6398"/>
<path d="M93.5178 100.723C94.1357 100.105 94.1357 99.1781 93.5178 98.5602C92.8999 97.9423 91.973 97.9423 91.3551 98.5602C90.7372 99.1781 90.7372 100.105 91.3551 100.723C91.973 101.341 92.8999 101.341 93.5178 100.723Z" fill="#5D6398"/>
<path d="M85.1759 141.814C84.5787 142.411 84.5787 143.379 85.1759 143.977C85.7731 144.574 86.7414 144.574 87.3386 143.977C87.9358 143.379 87.9358 142.411 87.3386 141.814C86.7414 141.217 85.7731 141.217 85.1759 141.814Z" fill="#5D6398"/>
<path d="M85.1759 154.586C84.5787 155.183 84.5787 156.151 85.1759 156.749C85.7731 157.346 86.7414 157.346 87.3386 156.749C87.9358 156.151 87.9358 155.183 87.3386 154.586C86.7414 153.989 85.7731 153.989 85.1759 154.586Z" fill="#5D6398"/>
<path d="M99.5419 106.748C100.005 106.284 100.16 105.512 99.5419 104.894C98.924 104.276 98.3061 104.276 97.6882 104.894C97.0703 105.512 97.0703 106.13 97.6882 106.748C98.3061 107.366 99.0785 107.211 99.5419 106.748Z" fill="#5D6398"/>
<path d="M69.2648 125.903C70.0372 125.131 70.1917 123.74 69.2648 122.813C68.3379 121.887 67.1021 121.887 66.1753 122.813C65.4029 123.586 65.2484 124.976 66.1753 125.903C67.1021 126.83 68.4924 126.675 69.2648 125.903Z" fill="#5D6398"/>
<path d="M44.8572 101.495C45.9386 100.414 45.7841 98.7147 44.8572 97.7878C43.7759 96.7065 42.0767 96.861 41.1498 97.7878C40.0685 98.8692 40.2229 100.568 41.1498 101.495C42.2311 102.577 43.7759 102.577 44.8572 101.495Z" fill="#5D6398"/>
<path d="M81.3135 137.952C82.0859 137.179 81.9314 136.098 81.3135 135.48C80.5411 134.708 79.4598 134.862 78.8419 135.48C78.0695 136.253 78.224 137.334 78.8419 137.952C79.6143 138.724 80.5411 138.724 81.3135 137.952Z" fill="#5D6398"/>
<path d="M75.1348 131.773C75.9072 131 75.7527 129.919 75.1348 129.301C74.5169 128.683 73.2811 128.683 72.6632 129.301C71.8908 130.074 72.0453 131.155 72.6632 131.773C73.2811 132.391 74.3624 132.545 75.1348 131.773Z" fill="#5D6398"/>
<path d="M63.0856 119.724C63.858 118.951 64.0125 117.561 63.0856 116.634C62.1587 115.707 60.9229 115.707 59.9961 116.634C59.2237 117.407 59.0692 118.797 59.9961 119.724C60.9229 120.651 62.3132 120.496 63.0856 119.724Z" fill="#5D6398"/>
<path d="M50.8823 107.52C51.8092 106.593 51.8092 105.048 50.8823 104.122C49.9554 103.195 48.4107 103.195 47.4838 104.122C46.557 105.048 46.557 106.593 47.4838 107.52C48.4107 108.447 49.9554 108.447 50.8823 107.52V107.52Z" fill="#5D6398"/>
<path d="M57.061 113.699C57.9879 112.772 57.9879 111.227 57.061 110.3C56.1342 109.374 54.5894 109.374 53.6625 110.3C52.7357 111.227 52.7357 112.772 53.6625 113.699C54.5894 114.626 56.1342 114.626 57.061 113.699Z" fill="#5D6398"/>
<path d="M87.3386 106.902C87.9565 106.285 87.9565 105.358 87.3386 104.74C86.7207 104.122 85.7938 104.122 85.1759 104.74C84.558 105.358 84.558 106.285 85.1759 106.902C85.7938 107.52 86.7207 107.52 87.3386 106.902Z" fill="#5D6398"/>
<path d="M81.3135 100.877C82.0859 100.105 81.9314 99.0236 81.3135 98.4057C80.6956 97.7878 79.4598 97.7878 78.8419 98.4057C78.224 99.0236 78.224 100.259 78.8419 100.877C79.4598 101.495 80.5411 101.65 81.3135 100.877Z" fill="#5D6398"/>
<path d="M69.6021 100.877C70.3745 100.105 70.22 99.0236 69.6021 98.4057C68.9842 97.7878 67.7484 97.7878 67.1305 98.4057C66.5125 99.0236 66.5126 100.259 67.1305 100.877C67.7484 101.495 68.8297 101.65 69.6021 100.877Z" fill="#5D6398"/>
<path d="M81.3135 88.5196C82.0859 87.7472 81.9314 86.6658 81.3135 86.0479C80.6956 85.43 79.4598 85.43 78.8419 86.0479C78.224 86.6658 78.224 87.9017 78.8419 88.5196C79.4598 89.1375 80.5411 89.2919 81.3135 88.5196Z" fill="#5D6398"/>
<path d="M63.0856 82.6493C63.858 81.8769 64.0125 80.4866 63.0856 79.5597C62.3132 78.7873 60.9229 78.6329 59.9961 79.5597C59.0692 80.4866 59.0692 81.7224 59.9961 82.6493C60.7685 83.4216 62.3132 83.4216 63.0856 82.6493Z" fill="#5D6398"/>
<path d="M99.5419 119.106C100.005 118.642 100.16 117.87 99.5419 117.252C99.0785 116.789 98.3061 116.634 97.6882 117.252C97.2248 117.715 97.0703 118.488 97.6882 119.106C98.1516 119.569 99.0785 119.569 99.5419 119.106Z" fill="#5D6398"/>
<path d="M75.1348 94.6985C75.9072 93.9261 75.7527 92.8447 75.1348 92.2268C74.5169 91.6089 73.2811 91.6089 72.6632 92.2268C72.0453 92.8447 72.0453 94.0805 72.6632 94.6985C73.2811 95.3164 74.3624 95.4708 75.1348 94.6985Z" fill="#5D6398"/>
<path d="M69.2648 88.8285C70.0372 88.0561 70.1917 86.6658 69.2648 85.739C68.4924 84.9666 67.1021 84.8121 66.1753 85.739C65.2484 86.6658 65.2484 87.9017 66.1753 88.8285C66.9477 89.6009 68.4924 89.6009 69.2648 88.8285Z" fill="#5D6398"/>
<path d="M93.5178 113.081C94.1357 112.463 94.1357 111.536 93.5178 110.918C92.8999 110.3 91.973 110.3 91.3551 110.918C90.7372 111.536 90.7372 112.463 91.3551 113.081C91.973 113.699 92.8999 113.699 93.5178 113.081Z" fill="#5D6398"/>
<path d="M69.2648 76.47C70.0372 75.6976 70.1917 74.3074 69.2648 73.3805C68.4924 72.6081 67.1021 72.4536 66.1753 73.3805C65.2484 74.3074 65.2484 75.5432 66.1753 76.47C66.9477 77.2424 68.4924 77.2424 69.2648 76.47Z" fill="#5D6398"/>
<path d="M75.1348 82.3403C75.9072 81.5679 75.7527 80.4866 75.1348 79.8687C74.3624 79.0963 73.2811 79.2508 72.6632 79.8687C72.0453 80.4866 72.0453 81.7224 72.6632 82.3403C73.4356 83.1127 74.3624 83.1127 75.1348 82.3403Z" fill="#5D6398"/>
<path d="M111.591 131.155C111.9 130.846 111.9 130.228 111.591 129.919C111.282 129.61 110.664 129.61 110.355 129.919C110.046 130.228 110.046 130.846 110.355 131.155C110.664 131.464 111.282 131.464 111.591 131.155Z" fill="#5D6398"/>
<path d="M111.591 181.047C111.9 180.738 111.9 180.12 111.591 179.811C111.282 179.502 110.664 179.502 110.355 179.811C110.046 180.12 110.046 180.738 110.355 181.047C110.664 181.356 111.282 181.356 111.591 181.047Z" fill="#5D6398"/>
<path d="M105.721 125.285C106.185 124.822 106.339 124.049 105.721 123.431C105.103 122.813 104.485 122.813 103.867 123.431C103.404 123.895 103.249 124.667 103.867 125.285C104.485 125.903 105.258 125.748 105.721 125.285Z" fill="#5D6398"/>
<path d="M105.721 162.815C106.185 162.352 106.339 161.579 105.721 160.961C105.103 160.344 104.485 160.344 103.867 160.961C103.404 161.425 103.249 162.197 103.867 162.815C104.485 163.433 105.258 163.279 105.721 162.815Z" fill="#5D6398"/>
<path d="M41.1498 110.146C40.126 111.17 40.126 112.83 41.1498 113.853C42.1736 114.877 43.8334 114.877 44.8572 113.853C45.881 112.83 45.881 111.17 44.8572 110.146C43.8334 109.122 42.1736 109.122 41.1498 110.146Z" fill="#5D6398"/>
</g>
<mask id="path-106-outside-1" maskUnits="userSpaceOnUse" x="44.8945" y="95.9999" width="135" height="32" fill="black">
<rect fill="white" x="44.8945" y="95.9999" width="135" height="32"/>
<path fill-rule="evenodd" clip-rule="evenodd" d="M64.6611 108.706C64.6611 107.602 63.7657 106.706 62.6611 106.706H60.6522V118.213H64.6611V108.706ZM60.5636 101.413C60.4455 101.682 60.3864 101.974 60.3864 102.288C60.3864 102.602 60.4455 102.901 60.5636 103.185C60.6817 103.454 60.8442 103.693 61.0509 103.903C61.2576 104.112 61.4939 104.277 61.7596 104.396C62.0402 104.516 62.3355 104.576 62.6456 104.576C62.9557 104.576 63.2436 104.516 63.5094 104.396C63.7899 104.277 64.0336 104.112 64.2403 103.903C64.447 103.693 64.6094 103.454 64.7276 103.185C64.8457 102.901 64.9048 102.602 64.9048 102.288C64.9048 101.974 64.8457 101.682 64.7276 101.413C64.6094 101.129 64.447 100.882 64.2403 100.673C64.0336 100.463 63.7899 100.299 63.5094 100.179C63.2436 100.06 62.9557 99.9999 62.6456 99.9999C62.3355 99.9999 62.0402 100.06 61.7596 100.179C61.4939 100.299 61.2576 100.463 61.0509 100.673C60.8442 100.882 60.6817 101.129 60.5636 101.413ZM53.2357 105.024H58.4628V101.301H50.8945C49.79 101.301 48.8945 102.196 48.8945 103.301V118.213H53.2357V111.574H57.9977V107.85H53.2357V105.024ZM71.1216 112.404C71.1216 112.778 71.1881 113.129 71.321 113.458C71.4539 113.772 71.631 114.049 71.8525 114.288C72.0888 114.527 72.362 114.714 72.672 114.849C72.9969 114.983 73.3439 115.05 73.713 115.05C74.0674 115.05 74.3996 114.983 74.7097 114.849C75.0346 114.714 75.3077 114.527 75.5292 114.288C75.7655 114.049 75.95 113.772 76.0829 113.458C76.2306 113.129 76.3044 112.785 76.3044 112.426C76.3044 112.052 76.2306 111.708 76.0829 111.394C75.95 111.08 75.7655 110.804 75.5292 110.564C75.293 110.325 75.0124 110.138 74.6876 110.004C74.3775 109.869 74.0526 109.802 73.713 109.802C73.3586 109.802 73.0264 109.877 72.7163 110.026C72.4062 110.161 72.1331 110.348 71.8968 110.587C71.6606 110.811 71.4686 111.08 71.321 111.394C71.1881 111.708 71.1216 112.045 71.1216 112.404ZM80.114 108.706V117.428C80.114 118.071 80.0771 118.647 80.0033 119.155C79.9294 119.663 79.8261 120.112 79.6932 120.501C79.516 120.994 79.2354 121.45 78.8515 121.869C78.4824 122.303 78.032 122.677 77.5005 122.991C76.9689 123.305 76.3635 123.551 75.6843 123.731C75.0198 123.91 74.2963 124 73.5137 124C72.6277 124 71.8156 123.888 71.0773 123.663C70.339 123.439 69.6893 123.125 69.1282 122.721C68.5819 122.333 68.1315 121.869 67.7772 121.331C67.4228 120.807 67.1865 120.232 67.0684 119.604H71.5868C71.8673 120.366 72.5022 120.748 73.4915 120.748C74.3332 120.748 74.9755 120.508 75.4185 120.03C75.8762 119.551 76.1051 118.886 76.1051 118.034V116.935C75.8098 117.219 75.5218 117.458 75.2413 117.652C74.9755 117.832 74.7023 117.981 74.4218 118.101C74.1412 118.22 73.8459 118.303 73.5358 118.348C73.2258 118.407 72.8861 118.437 72.517 118.437C71.7049 118.437 70.9592 118.295 70.28 118.011C69.6007 117.727 69.0101 117.331 68.5081 116.822C68.0208 116.314 67.6369 115.708 67.3563 115.006C67.0906 114.288 66.9577 113.495 66.9577 112.628C66.9577 111.746 67.1053 110.931 67.4006 110.183C67.696 109.421 68.0946 108.763 68.5967 108.209C69.1135 107.641 69.7189 107.2 70.4129 106.886C71.1216 106.557 71.8894 106.392 72.7163 106.392C74.06 106.392 75.1896 106.901 76.1051 107.918V106.706H78.114C79.2186 106.706 80.114 107.602 80.114 108.706ZM85.44 106.706H82.8442V118.213H86.8531V112.538C86.8531 111.925 86.8974 111.432 86.986 111.058C87.0893 110.669 87.2222 110.37 87.3847 110.161C87.5619 109.936 87.7612 109.787 87.9827 109.712C88.2042 109.637 88.4404 109.6 88.6914 109.6C88.9868 109.6 89.2452 109.645 89.4666 109.735C89.6881 109.809 89.8653 109.959 89.9982 110.183C90.1459 110.407 90.2566 110.714 90.3304 111.103C90.4043 111.477 90.4412 111.955 90.4412 112.538V118.213H94.4501V112.538C94.4501 110.639 95.0924 109.69 96.377 109.69C96.6133 109.69 96.8348 109.727 97.0415 109.802C97.2482 109.877 97.4254 110.019 97.5731 110.228C97.7355 110.437 97.8536 110.729 97.9274 111.103C98.016 111.477 98.0603 111.955 98.0603 112.538V118.213H102.069V110.744C102.069 109.981 101.966 109.331 101.759 108.792C101.567 108.254 101.301 107.821 100.962 107.492C100.622 107.148 100.216 106.901 99.7436 106.751C99.2711 106.587 98.7691 106.505 98.2375 106.505C96.569 106.505 95.2844 107.23 94.3836 108.68C93.4977 107.245 92.2131 106.527 90.5298 106.527C89.1713 106.527 87.9458 107.058 86.8531 108.12C86.8531 107.339 86.2204 106.706 85.44 106.706ZM108.541 112.426C108.541 112.8 108.607 113.151 108.74 113.48C108.873 113.794 109.05 114.071 109.272 114.31C109.508 114.549 109.781 114.736 110.091 114.871C110.416 115.006 110.763 115.073 111.132 115.073C111.487 115.073 111.819 115.006 112.129 114.871C112.454 114.736 112.727 114.549 112.948 114.31C113.185 114.071 113.369 113.794 113.502 113.48C113.65 113.166 113.724 112.83 113.724 112.471C113.724 112.112 113.65 111.776 113.502 111.462C113.369 111.133 113.185 110.849 112.948 110.609C112.727 110.37 112.454 110.183 112.129 110.049C111.819 109.914 111.487 109.847 111.132 109.847C110.763 109.847 110.416 109.914 110.091 110.049C109.781 110.183 109.508 110.37 109.272 110.609C109.05 110.849 108.873 111.125 108.74 111.439C108.607 111.738 108.541 112.067 108.541 112.426ZM113.591 106.706H117.622V118.213H113.591V116.935C112.734 118.026 111.575 118.572 110.113 118.572C109.287 118.572 108.526 118.422 107.832 118.123C107.138 117.809 106.533 117.376 106.016 116.822C105.499 116.269 105.093 115.619 104.798 114.871C104.517 114.123 104.377 113.308 104.377 112.426C104.377 111.604 104.517 110.826 104.798 110.093C105.078 109.346 105.47 108.695 105.972 108.142C106.474 107.589 107.072 107.155 107.766 106.841C108.46 106.512 109.227 106.348 110.069 106.348C111.487 106.348 112.66 106.849 113.591 107.85V106.706ZM175.44 118.937V100.809H173V118.937H175.44ZM147.411 109.782C146.319 110.841 145.773 112.125 145.773 113.635C145.773 115.238 146.308 116.569 147.379 117.628C148.449 118.701 149.776 119.238 151.36 119.238C152.958 119.238 154.306 118.712 155.406 117.66C156.497 116.601 157.043 115.288 157.043 113.721C157.043 112.168 156.501 110.859 155.416 109.793C154.317 108.727 152.979 108.194 151.403 108.194C149.834 108.194 148.503 108.723 147.411 109.782ZM149.114 116.158C148.55 115.549 148.268 114.723 148.268 113.678C148.268 112.705 148.557 111.911 149.136 111.295C149.714 110.68 150.47 110.372 151.403 110.372C152.35 110.372 153.113 110.68 153.692 111.295C154.263 111.904 154.549 112.716 154.549 113.732C154.549 114.748 154.263 115.56 153.692 116.168C153.12 116.776 152.358 117.081 151.403 117.081C150.456 117.081 149.693 116.773 149.114 116.158ZM159.137 113.635C159.137 112.125 159.683 110.841 160.775 109.782C161.867 108.723 163.197 108.194 164.767 108.194C166.343 108.194 167.681 108.727 168.78 109.793C169.865 110.859 170.407 112.168 170.407 113.721C170.407 115.288 169.861 116.601 168.769 117.66C167.67 118.712 166.321 119.238 164.723 119.238C163.14 119.238 161.813 118.701 160.742 117.628C159.672 116.569 159.137 115.238 159.137 113.635ZM161.632 113.678C161.632 114.723 161.914 115.549 162.478 116.158C163.056 116.773 163.819 117.081 164.767 117.081C165.721 117.081 166.484 116.776 167.055 116.168C167.627 115.56 167.912 114.748 167.912 113.732C167.912 112.716 167.627 111.904 167.055 111.295C166.477 110.68 165.714 110.372 164.767 110.372C163.834 110.372 163.078 110.68 162.5 111.295C161.921 111.911 161.632 112.705 161.632 113.678ZM134.812 105.282C135.881 104.763 137.082 104.569 138.263 104.725C139.443 104.881 140.551 105.379 141.445 106.158L143.29 104.083C141.981 102.943 140.36 102.213 138.632 101.985C136.904 101.757 135.146 102.041 133.581 102.801C132.016 103.561 130.713 104.764 129.839 106.256C128.964 107.749 128.557 109.465 128.668 111.187C128.779 112.908 129.403 114.559 130.462 115.93C131.521 117.3 132.967 118.329 134.617 118.887C136.267 119.444 138.047 119.505 139.732 119.061C141.417 118.618 142.932 117.69 144.084 116.395L141.987 114.569C141.2 115.453 140.165 116.087 139.014 116.39C137.863 116.693 136.647 116.652 135.52 116.271C134.393 115.89 133.405 115.187 132.681 114.251C131.958 113.314 131.531 112.187 131.456 111.011C131.38 109.834 131.658 108.662 132.256 107.643C132.853 106.623 133.743 105.802 134.812 105.282ZM121.986 115.097H125.611V118.685H121.986V115.097Z"/>
</mask>
<path fill-rule="evenodd" clip-rule="evenodd" d="M64.6611 108.706C64.6611 107.602 63.7657 106.706 62.6611 106.706H60.6522V118.213H64.6611V108.706ZM60.5636 101.413C60.4455 101.682 60.3864 101.974 60.3864 102.288C60.3864 102.602 60.4455 102.901 60.5636 103.185C60.6817 103.454 60.8442 103.693 61.0509 103.903C61.2576 104.112 61.4939 104.277 61.7596 104.396C62.0402 104.516 62.3355 104.576 62.6456 104.576C62.9557 104.576 63.2436 104.516 63.5094 104.396C63.7899 104.277 64.0336 104.112 64.2403 103.903C64.447 103.693 64.6094 103.454 64.7276 103.185C64.8457 102.901 64.9048 102.602 64.9048 102.288C64.9048 101.974 64.8457 101.682 64.7276 101.413C64.6094 101.129 64.447 100.882 64.2403 100.673C64.0336 100.463 63.7899 100.299 63.5094 100.179C63.2436 100.06 62.9557 99.9999 62.6456 99.9999C62.3355 99.9999 62.0402 100.06 61.7596 100.179C61.4939 100.299 61.2576 100.463 61.0509 100.673C60.8442 100.882 60.6817 101.129 60.5636 101.413ZM53.2357 105.024H58.4628V101.301H50.8945C49.79 101.301 48.8945 102.196 48.8945 103.301V118.213H53.2357V111.574H57.9977V107.85H53.2357V105.024ZM71.1216 112.404C71.1216 112.778 71.1881 113.129 71.321 113.458C71.4539 113.772 71.631 114.049 71.8525 114.288C72.0888 114.527 72.362 114.714 72.672 114.849C72.9969 114.983 73.3439 115.05 73.713 115.05C74.0674 115.05 74.3996 114.983 74.7097 114.849C75.0346 114.714 75.3077 114.527 75.5292 114.288C75.7655 114.049 75.95 113.772 76.0829 113.458C76.2306 113.129 76.3044 112.785 76.3044 112.426C76.3044 112.052 76.2306 111.708 76.0829 111.394C75.95 111.08 75.7655 110.804 75.5292 110.564C75.293 110.325 75.0124 110.138 74.6876 110.004C74.3775 109.869 74.0526 109.802 73.713 109.802C73.3586 109.802 73.0264 109.877 72.7163 110.026C72.4062 110.161 72.1331 110.348 71.8968 110.587C71.6606 110.811 71.4686 111.08 71.321 111.394C71.1881 111.708 71.1216 112.045 71.1216 112.404ZM80.114 108.706V117.428C80.114 118.071 80.0771 118.647 80.0033 119.155C79.9294 119.663 79.8261 120.112 79.6932 120.501C79.516 120.994 79.2354 121.45 78.8515 121.869C78.4824 122.303 78.032 122.677 77.5005 122.991C76.9689 123.305 76.3635 123.551 75.6843 123.731C75.0198 123.91 74.2963 124 73.5137 124C72.6277 124 71.8156 123.888 71.0773 123.663C70.339 123.439 69.6893 123.125 69.1282 122.721C68.5819 122.333 68.1315 121.869 67.7772 121.331C67.4228 120.807 67.1865 120.232 67.0684 119.604H71.5868C71.8673 120.366 72.5022 120.748 73.4915 120.748C74.3332 120.748 74.9755 120.508 75.4185 120.03C75.8762 119.551 76.1051 118.886 76.1051 118.034V116.935C75.8098 117.219 75.5218 117.458 75.2413 117.652C74.9755 117.832 74.7023 117.981 74.4218 118.101C74.1412 118.22 73.8459 118.303 73.5358 118.348C73.2258 118.407 72.8861 118.437 72.517 118.437C71.7049 118.437 70.9592 118.295 70.28 118.011C69.6007 117.727 69.0101 117.331 68.5081 116.822C68.0208 116.314 67.6369 115.708 67.3563 115.006C67.0906 114.288 66.9577 113.495 66.9577 112.628C66.9577 111.746 67.1053 110.931 67.4006 110.183C67.696 109.421 68.0946 108.763 68.5967 108.209C69.1135 107.641 69.7189 107.2 70.4129 106.886C71.1216 106.557 71.8894 106.392 72.7163 106.392C74.06 106.392 75.1896 106.901 76.1051 107.918V106.706H78.114C79.2186 106.706 80.114 107.602 80.114 108.706ZM85.44 106.706H82.8442V118.213H86.8531V112.538C86.8531 111.925 86.8974 111.432 86.986 111.058C87.0893 110.669 87.2222 110.37 87.3847 110.161C87.5619 109.936 87.7612 109.787 87.9827 109.712C88.2042 109.637 88.4404 109.6 88.6914 109.6C88.9868 109.6 89.2452 109.645 89.4666 109.735C89.6881 109.809 89.8653 109.959 89.9982 110.183C90.1459 110.407 90.2566 110.714 90.3304 111.103C90.4043 111.477 90.4412 111.955 90.4412 112.538V118.213H94.4501V112.538C94.4501 110.639 95.0924 109.69 96.377 109.69C96.6133 109.69 96.8348 109.727 97.0415 109.802C97.2482 109.877 97.4254 110.019 97.5731 110.228C97.7355 110.437 97.8536 110.729 97.9274 111.103C98.016 111.477 98.0603 111.955 98.0603 112.538V118.213H102.069V110.744C102.069 109.981 101.966 109.331 101.759 108.792C101.567 108.254 101.301 107.821 100.962 107.492C100.622 107.148 100.216 106.901 99.7436 106.751C99.2711 106.587 98.7691 106.505 98.2375 106.505C96.569 106.505 95.2844 107.23 94.3836 108.68C93.4977 107.245 92.2131 106.527 90.5298 106.527C89.1713 106.527 87.9458 107.058 86.8531 108.12C86.8531 107.339 86.2204 106.706 85.44 106.706ZM108.541 112.426C108.541 112.8 108.607 113.151 108.74 113.48C108.873 113.794 109.05 114.071 109.272 114.31C109.508 114.549 109.781 114.736 110.091 114.871C110.416 115.006 110.763 115.073 111.132 115.073C111.487 115.073 111.819 115.006 112.129 114.871C112.454 114.736 112.727 114.549 112.948 114.31C113.185 114.071 113.369 113.794 113.502 113.48C113.65 113.166 113.724 112.83 113.724 112.471C113.724 112.112 113.65 111.776 113.502 111.462C113.369 111.133 113.185 110.849 112.948 110.609C112.727 110.37 112.454 110.183 112.129 110.049C111.819 109.914 111.487 109.847 111.132 109.847C110.763 109.847 110.416 109.914 110.091 110.049C109.781 110.183 109.508 110.37 109.272 110.609C109.05 110.849 108.873 111.125 108.74 111.439C108.607 111.738 108.541 112.067 108.541 112.426ZM113.591 106.706H117.622V118.213H113.591V116.935C112.734 118.026 111.575 118.572 110.113 118.572C109.287 118.572 108.526 118.422 107.832 118.123C107.138 117.809 106.533 117.376 106.016 116.822C105.499 116.269 105.093 115.619 104.798 114.871C104.517 114.123 104.377 113.308 104.377 112.426C104.377 111.604 104.517 110.826 104.798 110.093C105.078 109.346 105.47 108.695 105.972 108.142C106.474 107.589 107.072 107.155 107.766 106.841C108.46 106.512 109.227 106.348 110.069 106.348C111.487 106.348 112.66 106.849 113.591 107.85V106.706ZM175.44 118.937V100.809H173V118.937H175.44ZM147.411 109.782C146.319 110.841 145.773 112.125 145.773 113.635C145.773 115.238 146.308 116.569 147.379 117.628C148.449 118.701 149.776 119.238 151.36 119.238C152.958 119.238 154.306 118.712 155.406 117.66C156.497 116.601 157.043 115.288 157.043 113.721C157.043 112.168 156.501 110.859 155.416 109.793C154.317 108.727 152.979 108.194 151.403 108.194C149.834 108.194 148.503 108.723 147.411 109.782ZM149.114 116.158C148.55 115.549 148.268 114.723 148.268 113.678C148.268 112.705 148.557 111.911 149.136 111.295C149.714 110.68 150.47 110.372 151.403 110.372C152.35 110.372 153.113 110.68 153.692 111.295C154.263 111.904 154.549 112.716 154.549 113.732C154.549 114.748 154.263 115.56 153.692 116.168C153.12 116.776 152.358 117.081 151.403 117.081C150.456 117.081 149.693 116.773 149.114 116.158ZM159.137 113.635C159.137 112.125 159.683 110.841 160.775 109.782C161.867 108.723 163.197 108.194 164.767 108.194C166.343 108.194 167.681 108.727 168.78 109.793C169.865 110.859 170.407 112.168 170.407 113.721C170.407 115.288 169.861 116.601 168.769 117.66C167.67 118.712 166.321 119.238 164.723 119.238C163.14 119.238 161.813 118.701 160.742 117.628C159.672 116.569 159.137 115.238 159.137 113.635ZM161.632 113.678C161.632 114.723 161.914 115.549 162.478 116.158C163.056 116.773 163.819 117.081 164.767 117.081C165.721 117.081 166.484 116.776 167.055 116.168C167.627 115.56 167.912 114.748 167.912 113.732C167.912 112.716 167.627 111.904 167.055 111.295C166.477 110.68 165.714 110.372 164.767 110.372C163.834 110.372 163.078 110.68 162.5 111.295C161.921 111.911 161.632 112.705 161.632 113.678ZM134.812 105.282C135.881 104.763 137.082 104.569 138.263 104.725C139.443 104.881 140.551 105.379 141.445 106.158L143.29 104.083C141.981 102.943 140.36 102.213 138.632 101.985C136.904 101.757 135.146 102.041 133.581 102.801C132.016 103.561 130.713 104.764 129.839 106.256C128.964 107.749 128.557 109.465 128.668 111.187C128.779 112.908 129.403 114.559 130.462 115.93C131.521 117.3 132.967 118.329 134.617 118.887C136.267 119.444 138.047 119.505 139.732 119.061C141.417 118.618 142.932 117.69 144.084 116.395L141.987 114.569C141.2 115.453 140.165 116.087 139.014 116.39C137.863 116.693 136.647 116.652 135.52 116.271C134.393 115.89 133.405 115.187 132.681 114.251C131.958 113.314 131.531 112.187 131.456 111.011C131.38 109.834 131.658 108.662 132.256 107.643C132.853 106.623 133.743 105.802 134.812 105.282ZM121.986 115.097H125.611V118.685H121.986V115.097Z" fill="#5D6398"/>
<path d="M60.6522 106.706V102.706H56.6522V106.706H60.6522ZM60.6522 118.213H56.6522V122.213H60.6522V118.213ZM64.6611 118.213V122.213H68.6611V118.213H64.6611ZM60.5636 101.413L64.2264 103.021L64.2421 102.985L64.2571 102.949L60.5636 101.413ZM60.5636 103.185L56.8701 104.721L56.8851 104.757L56.9008 104.792L60.5636 103.185ZM61.7596 104.396L60.1179 108.044L60.1542 108.06L60.1907 108.076L61.7596 104.396ZM63.5094 104.396L61.9405 100.717L61.9039 100.732L61.8677 100.749L63.5094 104.396ZM64.2403 103.903L61.3941 101.092L61.3941 101.092L64.2403 103.903ZM64.7276 103.185L68.3903 104.792L68.406 104.757L68.421 104.721L64.7276 103.185ZM64.7276 101.413L61.0341 102.949L61.0491 102.985L61.0648 103.021L64.7276 101.413ZM64.2403 100.673L61.3941 103.483L61.3941 103.483L64.2403 100.673ZM63.5094 100.179L61.8677 103.827L61.9039 103.843L61.9405 103.859L63.5094 100.179ZM61.7596 100.179L60.1907 96.4999L60.1542 96.5155L60.1179 96.5318L61.7596 100.179ZM61.0509 100.673L58.2047 97.8623L58.2047 97.8623L61.0509 100.673ZM58.4628 105.024V109.024H62.4628V105.024H58.4628ZM53.2357 105.024V101.024H49.2357V105.024H53.2357ZM58.4628 101.301H62.4628V97.3009H58.4628V101.301ZM48.8945 118.213H44.8945V122.213H48.8945V118.213ZM53.2357 118.213V122.213H57.2357V118.213H53.2357ZM53.2357 111.574V107.574H49.2357V111.574H53.2357ZM57.9977 111.574V115.574H61.9977V111.574H57.9977ZM57.9977 107.85H61.9977V103.85H57.9977V107.85ZM53.2357 107.85H49.2357V111.85H53.2357V107.85ZM71.321 113.458L67.6121 114.956L67.6245 114.987L67.6373 115.017L71.321 113.458ZM71.8525 114.288L68.9172 117.005L68.961 117.052L69.0063 117.098L71.8525 114.288ZM72.672 114.849L71.0795 118.518L71.1102 118.531L71.1411 118.544L72.672 114.849ZM74.7097 114.849L73.1788 111.153L73.1479 111.166L73.1172 111.179L74.7097 114.849ZM75.5292 114.288L72.683 111.477L72.6377 111.523L72.5939 111.57L75.5292 114.288ZM76.0829 113.458L72.4337 111.82L72.416 111.859L72.3992 111.899L76.0829 113.458ZM76.0829 111.394L72.3992 112.953L72.4298 113.025L72.4631 113.096L76.0829 111.394ZM75.5292 110.564L78.3754 107.754L78.3754 107.754L75.5292 110.564ZM74.6876 110.004L73.095 113.673L73.1257 113.686L73.1566 113.699L74.6876 110.004ZM72.7163 110.026L74.3089 113.695L74.382 113.664L74.4538 113.629L72.7163 110.026ZM71.8968 110.587L74.6509 113.488L74.6977 113.443L74.743 113.397L71.8968 110.587ZM71.321 111.394L67.7012 109.692L67.6678 109.763L67.6373 109.835L71.321 111.394ZM80.0033 119.155L83.9617 119.73L83.9617 119.73L80.0033 119.155ZM79.6932 120.501L83.4578 121.853L83.4682 121.824L83.4782 121.795L79.6932 120.501ZM78.8515 121.869L75.9033 119.166L75.8535 119.22L75.8057 119.276L78.8515 121.869ZM77.5005 122.991L79.5349 126.435L79.5349 126.435L77.5005 122.991ZM75.6843 123.731L74.6626 119.863L74.652 119.866L74.6414 119.869L75.6843 123.731ZM71.0773 123.663L69.9146 127.491L69.9146 127.491L71.0773 123.663ZM69.1282 122.721L71.4645 119.475L71.456 119.468L71.4474 119.462L69.1282 122.721ZM67.7772 121.331L71.1182 119.131L71.1039 119.11L71.0893 119.088L67.7772 121.331ZM67.0684 119.604V115.604H62.2459L63.1373 120.343L67.0684 119.604ZM71.5868 119.604L75.3408 118.223L74.3773 115.604H71.5868V119.604ZM75.4185 120.03L72.528 117.265L72.5054 117.288L72.4832 117.312L75.4185 120.03ZM76.1051 116.935H80.1051V107.536L73.3319 114.052L76.1051 116.935ZM75.2413 117.652L77.4795 120.967L77.4995 120.954L77.5194 120.94L75.2413 117.652ZM74.4218 118.101L72.8529 114.421L72.8529 114.421L74.4218 118.101ZM73.5358 118.348L72.9631 114.389L72.8703 114.402L72.7782 114.42L73.5358 118.348ZM70.28 118.011L68.7364 121.701L68.7364 121.701L70.28 118.011ZM68.5081 116.822L65.6203 119.59L65.6409 119.612L65.6619 119.633L68.5081 116.822ZM67.3563 115.006L63.6053 116.395L63.6227 116.442L63.6414 116.489L67.3563 115.006ZM67.4006 110.183L71.1209 111.653L71.1259 111.64L71.1307 111.628L67.4006 110.183ZM68.5967 108.209L65.6375 105.518L65.6344 105.521L68.5967 108.209ZM70.4129 106.886L72.0618 110.53L72.0794 110.522L72.0969 110.514L70.4129 106.886ZM76.1051 107.918L73.1324 110.594L80.1051 118.339V107.918H76.1051ZM76.1051 106.706V102.706H72.1051V106.706H76.1051ZM82.8442 106.706V102.706H78.8442V106.706H82.8442ZM82.8442 118.213H78.8442V122.213H82.8442V118.213ZM86.8531 118.213V122.213H90.8531V118.213H86.8531ZM86.986 111.058L83.1203 110.03L83.1063 110.083L83.0938 110.135L86.986 111.058ZM87.3847 110.161L84.2459 107.681L84.235 107.695L84.2243 107.709L87.3847 110.161ZM89.4666 109.735L87.9649 113.442L88.0749 113.486L88.1873 113.524L89.4666 109.735ZM89.9982 110.183L86.5569 112.222L86.6051 112.303L86.6572 112.383L89.9982 110.183ZM90.3304 111.103L86.4007 111.849L86.4034 111.863L86.4062 111.878L90.3304 111.103ZM90.4412 118.213H86.4412V122.213H90.4412V118.213ZM94.4501 118.213V122.213H98.4501V118.213H94.4501ZM97.0415 109.802L95.681 113.563L95.681 113.563L97.0415 109.802ZM97.5731 110.228L94.3043 112.533L94.3569 112.608L94.4127 112.68L97.5731 110.228ZM97.9274 111.103L94.0032 111.878L94.0179 111.952L94.0353 112.025L97.9274 111.103ZM98.0603 118.213H94.0603V122.213H98.0603V118.213ZM102.069 118.213V122.213H106.069V118.213H102.069ZM101.759 108.792L97.9915 110.136L98.0077 110.181L98.025 110.226L101.759 108.792ZM100.962 107.492L98.1156 110.302L98.1468 110.334L98.1788 110.365L100.962 107.492ZM99.7436 106.751L98.4286 110.529L98.4824 110.548L98.5368 110.565L99.7436 106.751ZM94.3836 108.68L90.9797 110.781L94.3732 116.28L97.7818 110.79L94.3836 108.68ZM86.8531 108.12H82.8531V117.583L89.6405 110.988L86.8531 108.12ZM108.74 113.48L105.031 114.979L105.044 115.009L105.056 115.039L108.74 113.48ZM109.272 114.31L106.336 117.028L106.38 117.075L106.426 117.121L109.272 114.31ZM110.091 114.871L108.499 118.54L108.529 118.554L108.56 118.566L110.091 114.871ZM112.129 114.871L110.598 111.176L110.567 111.188L110.536 111.202L112.129 114.871ZM112.948 114.31L110.102 111.5L110.057 111.546L110.013 111.593L112.948 114.31ZM113.502 113.48L109.882 111.778L109.849 111.849L109.818 111.921L113.502 113.48ZM113.502 111.462L109.793 112.96L109.835 113.063L109.882 113.164L113.502 111.462ZM112.948 110.609L110.013 113.327L110.057 113.374L110.102 113.42L112.948 110.609ZM112.129 110.049L110.536 113.718L110.567 113.731L110.598 113.744L112.129 110.049ZM110.091 110.049L108.56 106.353L108.529 106.366L108.499 106.379L110.091 110.049ZM109.272 110.609L106.426 107.799L106.38 107.845L106.336 107.892L109.272 110.609ZM108.74 111.439L112.396 113.063L112.41 113.031L112.424 112.998L108.74 111.439ZM117.622 106.706H121.622V102.706H117.622V106.706ZM113.591 106.706V102.706H109.591V106.706H113.591ZM117.622 118.213V122.213H121.622V118.213H117.622ZM113.591 118.213H109.591V122.213H113.591V118.213ZM113.591 116.935H117.591V105.356L110.444 114.465L113.591 116.935ZM107.832 118.123L106.183 121.768L106.216 121.782L106.249 121.797L107.832 118.123ZM106.016 116.822L103.093 119.553L103.093 119.553L106.016 116.822ZM104.798 114.871L101.053 116.276L101.065 116.308L101.077 116.34L104.798 114.871ZM104.798 110.093L108.533 111.524L108.538 111.511L108.543 111.499L104.798 110.093ZM105.972 108.142L108.934 110.83L108.934 110.83L105.972 108.142ZM107.766 106.841L109.415 110.485L109.447 110.471L109.479 110.456L107.766 106.841ZM113.591 107.85L110.659 110.572L117.591 118.037V107.85H113.591ZM175.44 100.809H179.44V96.8092H175.44V100.809ZM175.44 118.937V122.937H179.44V118.937H175.44ZM173 100.809V96.8092H169V100.809H173ZM173 118.937H169V122.937H173V118.937ZM147.411 109.782L150.196 112.653L150.196 112.653L147.411 109.782ZM147.379 117.628L150.211 114.804L150.202 114.794L150.192 114.785L147.379 117.628ZM155.406 117.66L158.171 120.55L158.181 120.541L158.19 120.532L155.406 117.66ZM155.416 109.793L158.22 106.94L158.211 106.931L158.201 106.922L155.416 109.793ZM149.114 116.158L146.181 118.877L146.191 118.887L146.2 118.897L149.114 116.158ZM149.136 111.295L152.05 114.035L152.05 114.035L149.136 111.295ZM153.692 111.295L156.607 108.557L156.606 108.556L153.692 111.295ZM153.692 116.168L156.607 118.907L156.607 118.907L153.692 116.168ZM160.775 109.782L157.99 106.911L157.99 106.911L160.775 109.782ZM168.78 109.793L171.584 106.94L171.574 106.931L171.565 106.922L168.78 109.793ZM168.769 117.66L171.535 120.55L171.544 120.541L171.554 120.532L168.769 117.66ZM160.742 117.628L163.575 114.804L163.565 114.794L163.556 114.785L160.742 117.628ZM162.478 116.158L159.545 118.877L159.554 118.887L159.564 118.897L162.478 116.158ZM167.055 116.168L164.14 113.43L164.14 113.43L167.055 116.168ZM167.055 111.295L169.971 108.557L169.97 108.556L167.055 111.295ZM162.5 111.295L159.585 108.556L159.585 108.556L162.5 111.295ZM138.263 104.725L138.786 100.759L138.786 100.759L138.263 104.725ZM134.812 105.282L133.064 101.684L133.064 101.684L134.812 105.282ZM141.445 106.158L138.818 109.175L141.803 111.774L144.434 108.817L141.445 106.158ZM143.29 104.083L146.279 106.742L148.966 103.721L145.917 101.067L143.29 104.083ZM133.581 102.801L135.329 106.399L135.329 106.399L133.581 102.801ZM129.839 106.256L126.388 104.234L126.388 104.234L129.839 106.256ZM128.668 111.187L132.66 110.929L132.66 110.929L128.668 111.187ZM130.462 115.93L127.297 118.375L127.297 118.375L130.462 115.93ZM134.617 118.887L133.337 122.676L133.337 122.676L134.617 118.887ZM139.732 119.061L138.714 115.193L138.714 115.193L139.732 119.061ZM144.084 116.395L147.072 119.053L149.759 116.033L146.711 113.378L144.084 116.395ZM141.987 114.569L144.614 111.552L141.629 108.953L138.998 111.91L141.987 114.569ZM135.52 116.271L136.8 112.481L136.8 112.481L135.52 116.271ZM132.681 114.251L129.516 116.696L129.516 116.696L132.681 114.251ZM131.456 111.011L135.447 110.753L135.447 110.753L131.456 111.011ZM132.256 107.643L135.707 109.665L135.707 109.665L132.256 107.643ZM125.611 115.097H129.611V111.097H125.611V115.097ZM121.986 115.097V111.097H117.986V115.097H121.986ZM125.611 118.685V122.685H129.611V118.685H125.611ZM121.986 118.685H117.986V122.685H121.986V118.685ZM62.6611 110.706C61.5566 110.706 60.6611 109.811 60.6611 108.706H68.6611C68.6611 105.393 65.9748 102.706 62.6611 102.706V110.706ZM60.6522 110.706H62.6611V102.706H60.6522V110.706ZM64.6522 118.213V106.706H56.6522V118.213H64.6522ZM64.6611 114.213H60.6522V122.213H64.6611V114.213ZM60.6611 108.706V118.213H68.6611V108.706H60.6611ZM64.3864 102.288C64.3864 102.489 64.3456 102.749 64.2264 103.021L56.9008 99.8055C56.5454 100.615 56.3864 101.459 56.3864 102.288H64.3864ZM64.2571 101.649C64.3455 101.862 64.3864 102.086 64.3864 102.288H56.3864C56.3864 103.118 56.5454 103.94 56.8701 104.721L64.2571 101.649ZM63.8971 101.092C64.0334 101.23 64.1479 101.399 64.2264 101.577L56.9008 104.792C57.2156 105.51 57.6549 106.157 58.2047 106.713L63.8971 101.092ZM63.4014 100.749C63.5895 100.833 63.7607 100.954 63.8971 101.092L58.2047 106.713C58.7545 107.27 59.3982 107.72 60.1179 108.044L63.4014 100.749ZM62.6456 100.576C62.8655 100.576 63.1047 100.621 63.3286 100.717L60.1907 108.076C60.9757 108.41 61.8055 108.576 62.6456 108.576V100.576ZM61.8677 100.749C62.1506 100.621 62.4265 100.576 62.6456 100.576V108.576C63.4849 108.576 64.3367 108.41 65.1511 108.044L61.8677 100.749ZM61.3941 101.092C61.566 100.918 61.7607 100.793 61.9405 100.717L65.0783 108.076C65.8192 107.76 66.5011 107.306 67.0865 106.713L61.3941 101.092ZM61.0648 101.577C61.1433 101.399 61.2577 101.23 61.3941 101.092L67.0865 106.713C67.6363 106.156 68.0756 105.51 68.3903 104.792L61.0648 101.577ZM60.9048 102.288C60.9048 102.086 60.9456 101.862 61.0341 101.649L68.421 104.721C68.7457 103.94 68.9048 103.118 68.9048 102.288H60.9048ZM61.0648 103.021C60.9456 102.749 60.9048 102.489 60.9048 102.288H68.9048C68.9048 101.459 68.7458 100.615 68.3903 99.8055L61.0648 103.021ZM61.3941 103.483C61.2225 103.31 61.1045 103.118 61.0341 102.949L68.421 99.8774C68.1144 99.1399 67.6716 98.4548 67.0865 97.8623L61.3941 103.483ZM61.9405 103.859C61.7607 103.782 61.566 103.657 61.3941 103.483L67.0865 97.8623C66.5011 97.2695 65.8192 96.8158 65.0783 96.4999L61.9405 103.859ZM62.6456 104C62.4265 104 62.1506 103.954 61.8677 103.827L65.1511 96.5318C64.3367 96.1652 63.4849 95.9999 62.6456 95.9999V104ZM63.3286 103.859C63.1047 103.954 62.8655 104 62.6456 104V95.9999C61.8055 95.9999 60.9757 96.1652 60.1907 96.4999L63.3286 103.859ZM63.8971 103.483C63.7607 103.622 63.5896 103.742 63.4014 103.827L60.1179 96.5318C59.3982 96.8558 58.7545 97.3055 58.2047 97.8623L63.8971 103.483ZM64.2571 102.949C64.1867 103.118 64.0687 103.31 63.8971 103.483L58.2047 97.8623C57.6196 98.4548 57.1768 99.1399 56.8701 99.8774L64.2571 102.949ZM58.4628 101.024H53.2357V109.024H58.4628V101.024ZM54.4628 101.301V105.024H62.4628V101.301H54.4628ZM50.8945 105.301H58.4628V97.3009H50.8945V105.301ZM52.8945 103.301C52.8945 104.405 51.9991 105.301 50.8945 105.301V97.3009C47.5808 97.3009 44.8945 99.9872 44.8945 103.301H52.8945ZM52.8945 118.213V103.301H44.8945V118.213H52.8945ZM53.2357 114.213H48.8945V122.213H53.2357V114.213ZM49.2357 111.574V118.213H57.2357V111.574H49.2357ZM57.9977 107.574H53.2357V115.574H57.9977V107.574ZM53.9977 107.85V111.574H61.9977V107.85H53.9977ZM53.2357 111.85H57.9977V103.85H53.2357V111.85ZM49.2357 105.024V107.85H57.2357V105.024H49.2357ZM75.0298 111.96C75.0994 112.132 75.1216 112.292 75.1216 112.404H67.1216C67.1216 113.263 67.2767 114.126 67.6121 114.956L75.0298 111.96ZM74.7878 111.57C74.8953 111.687 74.9654 111.806 75.0047 111.899L67.6373 115.017C67.9423 115.738 68.3668 116.411 68.9172 117.005L74.7878 111.57ZM74.2646 111.179C74.4209 111.247 74.5739 111.351 74.6988 111.477L69.0063 117.098C69.6037 117.703 70.3031 118.181 71.0795 118.518L74.2646 111.179ZM73.713 111.05C73.8426 111.05 74.0185 111.077 74.203 111.153L71.1411 118.544C71.9753 118.89 72.8451 119.05 73.713 119.05V111.05ZM73.1172 111.179C73.3339 111.085 73.5465 111.05 73.713 111.05V119.05C74.5883 119.05 75.4654 118.881 76.3022 118.518L73.1172 111.179ZM72.5939 111.57C72.7946 111.354 73.0129 111.222 73.1788 111.153L76.2407 118.544C77.0562 118.206 77.8209 117.7 78.4645 117.005L72.5939 111.57ZM72.3992 111.899C72.4609 111.753 72.5583 111.604 72.683 111.477L78.3754 117.098C78.9727 116.493 79.4392 115.791 79.7666 115.017L72.3992 111.899ZM72.3044 112.426C72.3044 112.218 72.3513 112.004 72.4337 111.82L79.7322 115.096C80.1099 114.254 80.3044 113.352 80.3044 112.426H72.3044ZM72.4631 113.096C72.3415 112.838 72.3044 112.594 72.3044 112.426H80.3044C80.3044 111.51 80.1197 110.579 79.7027 109.692L72.4631 113.096ZM72.683 113.375C72.5583 113.249 72.4609 113.099 72.3992 112.953L79.7666 109.835C79.4392 109.062 78.9727 108.359 78.3754 107.754L72.683 113.375ZM73.1566 113.699C73.0114 113.639 72.8388 113.533 72.683 113.375L78.3754 107.754C77.7471 107.118 77.0135 106.638 76.2185 106.308L73.1566 113.699ZM73.713 113.802C73.5074 113.802 73.29 113.758 73.095 113.673L76.2801 106.334C75.465 105.981 74.5979 105.802 73.713 105.802V113.802ZM74.4538 113.629C74.2058 113.749 73.942 113.802 73.713 113.802V105.802C72.7752 105.802 71.8471 106.004 70.9789 106.423L74.4538 113.629ZM74.743 113.397C74.6182 113.524 74.4652 113.628 74.3089 113.695L71.1238 106.357C70.3473 106.694 69.648 107.171 69.0506 107.776L74.743 113.397ZM74.9408 113.096C74.8908 113.203 74.7982 113.348 74.6509 113.488L69.1428 107.686C68.5229 108.274 68.0465 108.958 67.7012 109.692L74.9408 113.096ZM75.1216 112.404C75.1216 112.552 75.0914 112.748 75.0047 112.953L67.6373 109.835C67.2848 110.668 67.1216 111.538 67.1216 112.404H75.1216ZM84.114 117.428V108.706H76.114V117.428H84.114ZM83.9617 119.73C84.0691 118.991 84.114 118.218 84.114 117.428H76.114C76.114 117.924 76.0851 118.303 76.0448 118.58L83.9617 119.73ZM83.4782 121.795C83.7079 121.123 83.8608 120.425 83.9617 119.73L76.0448 118.58C75.9981 118.902 75.9443 119.102 75.9082 119.207L83.4782 121.795ZM81.7998 124.572C82.5127 123.795 83.0865 122.887 83.4578 121.853L75.9285 119.149C75.9316 119.141 75.9348 119.133 75.9377 119.127C75.9407 119.121 75.9427 119.118 75.9429 119.117C75.9437 119.116 75.9337 119.133 75.9033 119.166L81.7998 124.572ZM79.5349 126.435C80.4164 125.914 81.2174 125.261 81.8974 124.462L75.8057 119.276C75.7473 119.345 75.6477 119.439 75.466 119.547L79.5349 126.435ZM76.7059 127.598C77.6926 127.337 78.6467 126.959 79.5349 126.435L75.466 119.547C75.291 119.65 75.0344 119.765 74.6626 119.863L76.7059 127.598ZM73.5137 128C74.6012 128 75.6799 127.875 76.7271 127.592L74.6414 119.869C74.3597 119.945 73.9913 120 73.5137 120V128ZM69.9146 127.491C71.0809 127.845 72.2909 128 73.5137 128V120C72.9646 120 72.5504 119.93 72.2401 119.836L69.9146 127.491ZM66.792 125.968C67.7486 126.657 68.8043 127.153 69.9146 127.491L72.2401 119.836C71.8738 119.725 71.6301 119.594 71.4645 119.475L66.792 125.968ZM64.4361 123.53C65.0736 124.499 65.876 125.317 66.809 125.98L71.4474 119.462C71.2878 119.349 71.1895 119.24 71.1182 119.131L64.4361 123.53ZM63.1373 120.343C63.3555 121.503 63.8001 122.592 64.465 123.573L71.0893 119.088C71.0455 119.023 71.0175 118.96 70.9995 118.864L63.1373 120.343ZM71.5868 115.604H67.0684V123.604H71.5868V115.604ZM73.4915 116.748C73.4969 116.748 73.5843 116.748 73.7302 116.782C73.8804 116.817 74.0944 116.889 74.3327 117.032C74.8744 117.358 75.1988 117.837 75.3408 118.223L67.8327 120.985C68.2553 122.133 69.0374 123.184 70.214 123.891C71.3288 124.56 72.5075 124.748 73.4915 124.748V116.748ZM72.4832 117.312C72.7088 117.069 72.9737 116.907 73.2083 116.82C73.4226 116.74 73.5407 116.748 73.4915 116.748V124.748C75.1048 124.748 76.9487 124.265 78.3538 122.747L72.4832 117.312ZM72.1051 118.034C72.1051 118.108 72.0946 118.035 72.1509 117.871C72.2125 117.692 72.3325 117.469 72.528 117.265L78.3089 122.795C79.6661 121.376 80.1051 119.609 80.1051 118.034H72.1051ZM72.1051 116.935V118.034H80.1051V116.935H72.1051ZM77.5194 120.94C78.0063 120.603 78.4585 120.221 78.8783 119.817L73.3319 114.052C73.161 114.216 73.0374 114.313 72.9631 114.364L77.5194 120.94ZM75.9907 121.78C76.5171 121.556 77.0135 121.282 77.4795 120.967L73.0031 114.337C72.9375 114.381 72.8876 114.407 72.8529 114.421L75.9907 121.78ZM74.1086 122.306C74.752 122.213 75.383 122.039 75.9907 121.78L72.8529 114.421C72.8995 114.402 72.9398 114.392 72.9631 114.389L74.1086 122.306ZM72.517 122.437C73.099 122.437 73.6961 122.39 74.2934 122.275L72.7782 114.42C72.7554 114.424 72.6733 114.437 72.517 114.437V122.437ZM68.7364 121.701C69.9527 122.21 71.2297 122.437 72.517 122.437V114.437C72.18 114.437 71.9657 114.38 71.8235 114.321L68.7364 121.701ZM65.6619 119.633C66.5471 120.529 67.5843 121.219 68.7364 121.701L71.8235 114.321C71.6172 114.235 71.4732 114.132 71.3543 114.012L65.6619 119.633ZM63.6414 116.489C64.0982 117.633 64.7514 118.684 65.6203 119.59L71.3959 114.055C71.2902 113.944 71.1756 113.784 71.0713 113.523L63.6414 116.489ZM62.9577 112.628C62.9577 113.907 63.1545 115.177 63.6053 116.395L71.1074 113.617C71.0267 113.398 70.9577 113.084 70.9577 112.628H62.9577ZM63.6803 108.714C63.183 109.973 62.9577 111.292 62.9577 112.628H70.9577C70.9577 112.2 71.0277 111.889 71.1209 111.653L63.6803 108.714ZM65.6344 105.521C64.7723 106.471 64.1265 107.561 63.6705 108.739L71.1307 111.628C71.2655 111.28 71.4169 111.054 71.5589 110.897L65.6344 105.521ZM68.7639 103.242C67.5685 103.783 66.5183 104.549 65.6375 105.518L71.5558 110.901C71.7086 110.733 71.8693 110.617 72.0618 110.53L68.7639 103.242ZM72.7163 102.392C71.3423 102.392 69.9957 102.67 68.7288 103.258L72.0969 110.514C72.2475 110.444 72.4366 110.392 72.7163 110.392V102.392ZM79.0778 105.241C77.4195 103.399 75.2171 102.392 72.7163 102.392V110.392C72.8707 110.392 72.9234 110.419 72.9296 110.421C72.9375 110.425 73.007 110.455 73.1324 110.594L79.0778 105.241ZM72.1051 106.706V107.918H80.1051V106.706H72.1051ZM78.114 102.706H76.1051V110.706H78.114V102.706ZM84.114 108.706C84.114 105.393 81.4277 102.706 78.114 102.706V110.706C77.0094 110.706 76.114 109.811 76.114 108.706H84.114ZM82.8442 110.706H85.44V102.706H82.8442V110.706ZM86.8442 118.213V106.706H78.8442V118.213H86.8442ZM86.8531 114.213H82.8442V122.213H86.8531V114.213ZM82.8531 112.538V118.213H90.8531V112.538H82.8531ZM83.0938 110.135C82.9042 110.936 82.8531 111.775 82.8531 112.538H90.8531C90.8531 112.324 90.861 112.17 90.8703 112.066C90.88 111.958 90.8884 111.937 90.8782 111.98L83.0938 110.135ZM84.2243 107.709C83.6092 108.502 83.2969 109.366 83.1203 110.03L90.8517 112.086C90.8609 112.051 90.8546 112.085 90.8185 112.166C90.7833 112.246 90.7014 112.411 90.545 112.613L84.2243 107.709ZM86.7034 105.922C85.5995 106.295 84.7954 106.986 84.2459 107.681L90.5234 112.64C90.3283 112.887 89.9228 113.279 89.262 113.502L86.7034 105.922ZM88.6914 105.6C88.0375 105.6 87.3664 105.698 86.7034 105.922L89.262 113.502C89.0419 113.576 88.8433 113.6 88.6914 113.6V105.6ZM90.9684 106.027C90.1718 105.704 89.384 105.6 88.6914 105.6V113.6C88.5895 113.6 88.3185 113.585 87.9649 113.442L90.9684 106.027ZM93.4395 108.144C92.8789 107.198 91.9805 106.361 90.746 105.945L88.1873 113.524C87.8264 113.403 87.4841 113.211 87.1858 112.96C86.8925 112.712 86.6905 112.448 86.5569 112.222L93.4395 108.144ZM94.2602 110.356C94.1304 109.673 93.8805 108.806 93.3392 107.984L86.6572 112.383C86.526 112.183 86.4596 112.022 86.43 111.94C86.4 111.857 86.3953 111.821 86.4007 111.849L94.2602 110.356ZM94.4412 112.538C94.4412 111.816 94.3979 111.053 94.2546 110.328L86.4062 111.878C86.406 111.877 86.4161 111.929 86.4254 112.05C86.4345 112.168 86.4412 112.328 86.4412 112.538H94.4412ZM94.4412 118.213V112.538H86.4412V118.213H94.4412ZM94.4501 114.213H90.4412V122.213H94.4501V114.213ZM90.4501 112.538V118.213H98.4501V112.538H90.4501ZM96.377 105.69C94.5942 105.69 92.783 106.439 91.6187 108.161C90.643 109.603 90.4501 111.263 90.4501 112.538H98.4501C98.4501 112.276 98.4734 112.168 98.4726 112.172C98.4719 112.175 98.4288 112.371 98.245 112.643C98.0434 112.941 97.7265 113.247 97.3021 113.456C96.8954 113.656 96.5501 113.69 96.377 113.69V105.69ZM98.402 106.04C97.7274 105.796 97.0423 105.69 96.377 105.69V113.69C96.1842 113.69 95.9421 113.658 95.681 113.563L98.402 106.04ZM100.842 107.922C100.302 107.158 99.5002 106.437 98.4019 106.04L95.681 113.563C94.9962 113.316 94.5484 112.88 94.3043 112.533L100.842 107.922ZM101.852 110.328C101.706 109.592 101.407 108.645 100.733 107.776L94.4127 112.68C94.2314 112.446 94.13 112.238 94.0761 112.106C94.0226 111.973 94.0055 111.889 94.0032 111.878L101.852 110.328ZM102.06 112.538C102.06 111.787 102.007 110.969 101.82 110.18L94.0353 112.025C94.0272 111.991 94.0352 112.014 94.0441 112.111C94.0529 112.205 94.0603 112.345 94.0603 112.538H102.06ZM102.06 118.213V112.538H94.0603V118.213H102.06ZM102.069 114.213H98.0603V122.213H102.069V114.213ZM98.0693 110.744V118.213H106.069V110.744H98.0693ZM98.025 110.226C98.0094 110.186 98.0693 110.322 98.0693 110.744H106.069C106.069 109.64 105.922 108.476 105.493 107.359L98.025 110.226ZM98.1788 110.365C97.9944 110.186 97.9634 110.057 97.9915 110.136L105.527 107.449C105.171 106.451 104.608 105.455 103.745 104.618L98.1788 110.365ZM98.5368 110.565C98.4813 110.547 98.4072 110.517 98.3255 110.467C98.2433 110.417 98.1723 110.359 98.1156 110.302L103.808 104.681C103 103.862 102.027 103.278 100.951 102.938L98.5368 110.565ZM98.2375 110.505C98.3495 110.505 98.4047 110.521 98.4286 110.529L101.059 102.974C100.138 102.653 99.1887 102.505 98.2375 102.505V110.505ZM97.7818 110.79C97.934 110.545 98.018 110.515 97.9891 110.532C97.983 110.535 97.9862 110.532 98.0121 110.525C98.0404 110.518 98.111 110.505 98.2375 110.505V102.505C95.1469 102.505 92.5953 103.978 90.9855 106.57L97.7818 110.79ZM90.5298 110.527C90.6658 110.527 90.7437 110.541 90.7773 110.55C90.8082 110.557 90.8126 110.562 90.8047 110.557C90.7968 110.553 90.8037 110.555 90.8273 110.578C90.8529 110.603 90.9071 110.663 90.9797 110.781L97.7876 106.58C96.175 103.967 93.6039 102.527 90.5298 102.527V110.527ZM89.6405 110.988C90.0853 110.556 90.3422 110.527 90.5298 110.527V102.527C88.0005 102.527 85.8062 103.56 84.0656 105.251L89.6405 110.988ZM85.44 110.706C84.0113 110.706 82.8531 109.548 82.8531 108.12H90.8531C90.8531 105.13 88.4296 102.706 85.44 102.706V110.706ZM112.449 111.982C112.519 112.154 112.541 112.314 112.541 112.426H104.541C104.541 113.285 104.696 114.148 105.031 114.979L112.449 111.982ZM112.207 111.593C112.314 111.709 112.385 111.829 112.424 111.921L105.056 115.039C105.362 115.76 105.786 116.433 106.336 117.028L112.207 111.593ZM111.684 111.202C111.84 111.269 111.993 111.373 112.118 111.5L106.426 117.121C107.023 117.726 107.722 118.203 108.499 118.54L111.684 111.202ZM111.132 111.073C111.262 111.073 111.438 111.099 111.622 111.176L108.56 118.566C109.394 118.912 110.264 119.073 111.132 119.073V111.073ZM110.536 111.202C110.753 111.108 110.966 111.073 111.132 111.073V119.073C112.007 119.073 112.885 118.904 113.721 118.54L110.536 111.202ZM110.013 111.593C110.214 111.376 110.432 111.244 110.598 111.176L113.66 118.566C114.475 118.229 115.24 117.723 115.884 117.028L110.013 111.593ZM109.818 111.921C109.88 111.776 109.978 111.626 110.102 111.5L115.795 117.121C116.392 116.516 116.858 115.813 117.186 115.039L109.818 111.921ZM109.724 112.471C109.724 112.262 109.771 112.015 109.882 111.778L117.122 115.182C117.529 114.317 117.724 113.398 117.724 112.471H109.724ZM109.882 113.164C109.771 112.927 109.724 112.68 109.724 112.471H117.724C117.724 111.544 117.529 110.625 117.122 109.76L109.882 113.164ZM110.102 113.42C109.947 113.262 109.847 113.094 109.793 112.96L117.211 109.963C116.891 109.172 116.423 108.435 115.795 107.799L110.102 113.42ZM110.598 113.744C110.432 113.675 110.214 113.543 110.013 113.327L115.884 107.892C115.24 107.197 114.475 106.691 113.66 106.353L110.598 113.744ZM111.132 113.847C110.966 113.847 110.753 113.812 110.536 113.718L113.721 106.379C112.885 106.016 112.007 105.847 111.132 105.847V113.847ZM111.622 113.744C111.438 113.82 111.262 113.847 111.132 113.847V105.847C110.264 105.847 109.394 106.008 108.56 106.353L111.622 113.744ZM112.118 113.42C111.993 113.546 111.84 113.65 111.684 113.718L108.499 106.379C107.722 106.716 107.023 107.194 106.426 107.799L112.118 113.42ZM112.424 112.998C112.385 113.091 112.314 113.211 112.207 113.327L106.336 107.892C105.786 108.486 105.361 109.159 105.056 109.88L112.424 112.998ZM112.541 112.426C112.541 112.572 112.511 112.804 112.396 113.063L105.085 109.815C104.704 110.673 104.541 111.562 104.541 112.426H112.541ZM117.622 102.706H113.591V110.706H117.622V102.706ZM121.622 118.213V106.706H113.622V118.213H121.622ZM113.591 122.213H117.622V114.213H113.591V122.213ZM109.591 116.935V118.213H117.591V116.935H109.591ZM110.113 122.572C112.727 122.572 115.077 121.52 116.738 119.404L110.444 114.465C110.401 114.52 110.375 114.542 110.37 114.546C110.365 114.55 110.368 114.547 110.375 114.544C110.381 114.541 110.372 114.546 110.338 114.554C110.301 114.561 110.23 114.572 110.113 114.572V122.572ZM106.249 121.797C107.488 122.331 108.794 122.572 110.113 122.572V114.572C109.779 114.572 109.564 114.514 109.415 114.45L106.249 121.797ZM103.093 119.553C103.972 120.494 105.011 121.237 106.183 121.768L109.481 114.479C109.265 114.381 109.093 114.257 108.939 114.092L103.093 119.553ZM101.077 116.34C101.545 117.526 102.213 118.611 103.093 119.553L108.939 114.092C108.785 113.928 108.641 113.712 108.518 113.401L101.077 116.34ZM100.377 112.426C100.377 113.738 100.587 115.035 101.053 116.276L108.543 113.466C108.448 113.212 108.377 112.879 108.377 112.426H100.377ZM101.062 108.663C100.598 109.874 100.377 111.139 100.377 112.426H108.377C108.377 112.069 108.436 111.778 108.533 111.524L101.062 108.663ZM103.009 105.454C102.145 106.407 101.498 107.5 101.053 108.688L108.543 111.499C108.658 111.191 108.794 110.984 108.934 110.83L103.009 105.454ZM106.117 103.197C104.934 103.732 103.886 104.487 103.009 105.454L108.934 110.83C109.061 110.69 109.209 110.578 109.415 110.485L106.117 103.197ZM110.069 102.348C108.692 102.348 107.331 102.62 106.052 103.227L109.479 110.456C109.588 110.404 109.763 110.348 110.069 110.348V102.348ZM116.522 105.129C114.804 103.278 112.553 102.348 110.069 102.348V110.348C110.298 110.348 110.404 110.386 110.443 110.402C110.478 110.417 110.548 110.452 110.659 110.572L116.522 105.129ZM109.591 106.706V107.85H117.591V106.706H109.591ZM171.44 100.809V118.937H179.44V100.809H171.44ZM173 104.809H175.44V96.8092H173V104.809ZM177 118.937V100.809H169V118.937H177ZM175.44 114.937H173V122.937H175.44V114.937ZM149.773 113.635C149.773 113.217 149.874 112.966 150.196 112.653L144.626 106.911C142.764 108.717 141.773 111.034 141.773 113.635H149.773ZM150.192 114.785C149.934 114.529 149.773 114.246 149.773 113.635H141.773C141.773 116.23 142.683 118.609 144.565 120.471L150.192 114.785ZM151.36 115.238C150.786 115.238 150.494 115.087 150.211 114.804L144.546 120.452C146.404 122.315 148.766 123.238 151.36 123.238V115.238ZM152.64 114.77C152.326 115.071 151.985 115.238 151.36 115.238V123.238C153.931 123.238 156.287 122.353 158.171 120.55L152.64 114.77ZM153.043 113.721C153.043 114.243 152.91 114.508 152.621 114.789L158.19 120.532C160.085 118.694 161.043 116.334 161.043 113.721H153.043ZM152.612 112.646C152.914 112.942 153.043 113.216 153.043 113.721H161.043C161.043 111.121 160.088 108.776 158.22 106.94L152.612 112.646ZM151.403 112.194C151.974 112.194 152.303 112.345 152.631 112.664L158.201 106.922C156.332 105.108 153.985 104.194 151.403 104.194V112.194ZM150.196 112.653C150.516 112.343 150.837 112.194 151.403 112.194V104.194C148.831 104.194 146.491 105.103 144.626 106.911L150.196 112.653ZM144.268 113.678C144.268 115.459 144.766 117.351 146.181 118.877L152.047 113.438C152.102 113.497 152.15 113.562 152.19 113.629C152.229 113.695 152.252 113.751 152.265 113.79C152.291 113.865 152.268 113.845 152.268 113.678H144.268ZM146.222 108.556C144.84 110.026 144.268 111.853 144.268 113.678H152.268C152.268 113.589 152.281 113.619 152.244 113.721C152.225 113.771 152.199 113.829 152.163 113.887C152.126 113.946 152.087 113.996 152.05 114.035L146.222 108.556ZM151.403 106.372C149.494 106.372 147.639 107.047 146.222 108.556L152.05 114.035C151.96 114.131 151.819 114.237 151.645 114.308C151.48 114.375 151.38 114.372 151.403 114.372V106.372ZM156.606 108.556C155.176 107.034 153.306 106.372 151.403 106.372V114.372C151.441 114.372 151.35 114.378 151.19 114.313C151.019 114.244 150.874 114.138 150.777 114.035L156.606 108.556ZM158.549 113.732C158.549 111.932 158.02 110.061 156.607 108.557L150.776 114.034C150.727 113.982 150.681 113.921 150.642 113.856C150.602 113.791 150.577 113.733 150.561 113.688C150.53 113.598 150.549 113.596 150.549 113.732H158.549ZM156.607 118.907C158.02 117.402 158.549 115.532 158.549 113.732H150.549C150.549 113.867 150.53 113.865 150.561 113.776C150.577 113.731 150.602 113.673 150.642 113.608C150.681 113.542 150.727 113.482 150.776 113.43L156.607 118.907ZM151.403 121.081C153.287 121.081 155.168 120.439 156.607 118.907L150.776 113.43C150.885 113.314 151.039 113.205 151.21 113.137C151.37 113.073 151.454 113.081 151.403 113.081V121.081ZM146.2 118.897C147.63 120.419 149.5 121.081 151.403 121.081V113.081C151.365 113.081 151.456 113.075 151.616 113.14C151.787 113.209 151.932 113.315 152.029 113.418L146.2 118.897ZM157.99 106.911C156.128 108.717 155.137 111.034 155.137 113.635H163.137C163.137 113.217 163.238 112.966 163.56 112.653L157.99 106.911ZM164.767 104.194C162.194 104.194 159.854 105.103 157.99 106.911L163.56 112.653C163.879 112.343 164.2 112.194 164.767 112.194V104.194ZM171.565 106.922C169.695 105.108 167.349 104.194 164.767 104.194V112.194C165.337 112.194 165.666 112.345 165.995 112.664L171.565 106.922ZM174.407 113.721C174.407 111.121 173.452 108.776 171.584 106.94L165.976 112.646C166.278 112.942 166.407 113.216 166.407 113.721H174.407ZM171.554 120.532C173.449 118.694 174.407 116.334 174.407 113.721H166.407C166.407 114.243 166.274 114.508 165.984 114.789L171.554 120.532ZM164.723 123.238C167.294 123.238 169.651 122.353 171.535 120.55L166.004 114.77C165.689 115.071 165.348 115.238 164.723 115.238V123.238ZM157.91 120.452C159.767 122.315 162.13 123.238 164.723 123.238V115.238C164.149 115.238 163.858 115.087 163.575 114.804L157.91 120.452ZM155.137 113.635C155.137 116.23 156.047 118.609 157.929 120.471L163.556 114.785C163.298 114.529 163.137 114.246 163.137 113.635H155.137ZM165.411 113.438C165.466 113.497 165.514 113.562 165.553 113.629C165.592 113.695 165.616 113.751 165.629 113.79C165.655 113.865 165.632 113.845 165.632 113.678H157.632C157.632 115.459 158.13 117.351 159.545 118.877L165.411 113.438ZM164.767 113.081C164.729 113.081 164.82 113.075 164.98 113.14C165.151 113.209 165.295 113.315 165.392 113.418L159.564 118.897C160.994 120.419 162.864 121.081 164.767 121.081V113.081ZM164.14 113.43C164.248 113.314 164.402 113.205 164.574 113.137C164.733 113.073 164.818 113.081 164.767 113.081V121.081C166.651 121.081 168.532 120.439 169.971 118.907L164.14 113.43ZM163.912 113.732C163.912 113.867 163.893 113.865 163.925 113.776C163.94 113.731 163.966 113.673 164.005 113.608C164.045 113.542 164.091 113.482 164.14 113.43L169.971 118.907C171.384 117.402 171.912 115.532 171.912 113.732H163.912ZM164.14 114.034C164.091 113.982 164.045 113.921 164.005 113.856C163.966 113.791 163.94 113.733 163.925 113.688C163.893 113.598 163.912 113.596 163.912 113.732H171.912C171.912 111.932 171.384 110.061 169.971 108.557L164.14 114.034ZM164.767 114.372C164.804 114.372 164.714 114.378 164.553 114.313C164.383 114.244 164.238 114.138 164.141 114.035L169.97 108.556C168.539 107.034 166.67 106.372 164.767 106.372V114.372ZM165.414 114.035C165.323 114.131 165.182 114.237 165.009 114.308C164.844 114.375 164.744 114.372 164.767 114.372V106.372C162.858 106.372 161.003 107.048 159.585 108.556L165.414 114.035ZM165.632 113.678C165.632 113.589 165.645 113.619 165.607 113.721C165.589 113.771 165.562 113.829 165.526 113.887C165.49 113.946 165.451 113.996 165.414 114.035L159.585 108.556C158.203 110.026 157.632 111.853 157.632 113.678H165.632ZM138.786 100.759C136.83 100.501 134.839 100.822 133.064 101.684L136.56 108.88C136.923 108.704 137.334 108.637 137.739 108.69L138.786 100.759ZM144.072 103.142C142.582 101.844 140.742 101.017 138.786 100.759L137.739 108.69C138.144 108.744 138.519 108.914 138.818 109.175L144.072 103.142ZM140.302 101.425L138.456 103.5L144.434 108.817L146.279 106.742L140.302 101.425ZM138.108 105.951C139.061 106.076 139.95 106.478 140.663 107.1L145.917 101.067C144.013 99.4084 141.659 98.35 139.156 98.0194L138.108 105.951ZM135.329 106.399C136.188 105.982 137.155 105.825 138.108 105.951L139.156 98.0194C136.652 97.6888 134.104 98.0997 131.833 99.2031L135.329 106.399ZM133.29 108.279C133.763 107.472 134.47 106.816 135.329 106.399L131.833 99.2031C129.561 100.307 127.664 102.056 126.388 104.234L133.29 108.279ZM132.66 110.929C132.6 110.006 132.818 109.084 133.29 108.278L126.388 104.234C125.111 106.414 124.514 108.923 124.676 111.444L132.66 110.929ZM133.628 113.484C133.054 112.741 132.719 111.852 132.66 110.929L124.676 111.444C124.839 113.964 125.753 116.376 127.297 118.375L133.628 113.484ZM135.898 115.097C134.99 114.791 134.202 114.227 133.628 113.484L127.297 118.375C128.841 120.373 130.944 121.868 133.337 122.676L135.898 115.097ZM138.714 115.193C137.786 115.437 136.805 115.404 135.898 115.097L133.337 122.676C135.729 123.485 138.309 123.572 140.751 122.93L138.714 115.193ZM141.095 113.736C140.469 114.44 139.642 114.949 138.714 115.193L140.751 122.93C143.193 122.287 145.394 120.94 147.072 119.053L141.095 113.736ZM139.36 117.585L141.457 119.411L146.711 113.378L144.614 111.552L139.36 117.585ZM140.033 120.259C141.941 119.756 143.662 118.703 144.976 117.227L138.998 111.91C138.737 112.203 138.39 112.418 137.996 112.522L140.033 120.259ZM134.24 120.061C136.109 120.692 138.124 120.761 140.033 120.259L137.996 112.522C137.602 112.626 137.185 112.611 136.8 112.481L134.24 120.061ZM129.516 116.696C130.725 118.26 132.37 119.429 134.24 120.061L136.8 112.481C136.416 112.351 136.085 112.114 135.847 111.805L129.516 116.696ZM127.464 111.268C127.591 113.243 128.307 115.132 129.516 116.696L135.847 111.805C135.609 111.497 135.472 111.131 135.447 110.753L127.464 111.268ZM128.804 105.621C127.804 107.327 127.337 109.293 127.464 111.268L135.447 110.753C135.423 110.376 135.512 109.998 135.707 109.665L128.804 105.621ZM133.064 101.684C131.288 102.547 129.804 103.915 128.804 105.621L135.707 109.665C135.902 109.331 136.197 109.056 136.56 108.88L133.064 101.684ZM125.611 111.097H121.986V119.097H125.611V111.097ZM129.611 118.685V115.097H121.611V118.685H129.611ZM121.986 122.685H125.611V114.685H121.986V122.685ZM117.986 115.097V118.685H125.986V115.097H117.986Z" fill="white" mask="url(#path-106-outside-1)"/>
</g>
<defs>
<filter id="filter0_d" x="0" y="0" width="225.789" height="225.789" filterUnits="userSpaceOnUse" color-interpolation-filters="sRGB">
<feFlood flood-opacity="0" result="BackgroundImageFix"/>
<feColorMatrix in="SourceAlpha" type="matrix" values="0 0 0 0 0 0 0 0 0 0 0 0 0 0 0 0 0 0 127 0"/>
<feOffset dy="1"/>
<feGaussianBlur stdDeviation="2"/>
<feColorMatrix type="matrix" values="0 0 0 0 0 0 0 0 0 0 0 0 0 0 0 0 0 0 0.25 0"/>
<feBlend mode="normal" in2="BackgroundImageFix" result="effect1_dropShadow"/>
<feBlend mode="normal" in="SourceGraphic" in2="effect1_dropShadow" result="shape"/>
</filter>
</defs>
</svg>
