<svg width="108" height="22" viewBox="0 0 108 22" fill="none" xmlns="http://www.w3.org/2000/svg">
<path opacity="0.5" fill-rule="evenodd" clip-rule="evenodd" d="M107.494 1V16.9645H105.367V1H107.494ZM83.6999 12.2952C83.6999 10.9656 84.1756 9.83453 85.1271 8.90193C86.0786 7.96932 87.2381 7.50302 88.6055 7.50302C89.9792 7.50302 91.145 7.97247 92.1028 8.91138C93.048 9.85028 93.5206 11.0034 93.5206 12.3708C93.5206 13.7508 93.0448 14.9071 92.0933 15.8397C91.1355 16.766 89.9603 17.2292 88.5677 17.2292C87.1877 17.2292 86.0314 16.7566 85.0988 15.8114C84.1662 14.8788 83.6999 13.7067 83.6999 12.2952ZM85.8739 12.333C85.8739 13.253 86.1196 13.9808 86.6111 14.5165C87.1152 15.0584 87.78 15.3293 88.6055 15.3293C89.4373 15.3293 90.1021 15.0615 90.5999 14.5259C91.0977 13.9903 91.3466 13.2751 91.3466 12.3803C91.3466 11.4855 91.0977 10.7703 90.5999 10.2347C90.0958 9.69275 89.431 9.42179 88.6055 9.42179C87.7926 9.42179 87.1341 9.69275 86.63 10.2347C86.1259 10.7766 85.8739 11.476 85.8739 12.333ZM95.7435 8.90193C94.792 9.83453 94.3163 10.9656 94.3163 12.2952C94.3163 13.7067 94.7826 14.8788 95.7152 15.8114C96.6478 16.7566 97.8041 17.2292 99.1841 17.2292C100.577 17.2292 101.752 16.766 102.71 15.8397C103.661 14.9071 104.137 13.7508 104.137 12.3708C104.137 11.0034 103.664 9.85028 102.719 8.91138C101.761 7.97247 100.596 7.50302 99.2219 7.50302C97.8545 7.50302 96.695 7.96932 95.7435 8.90193ZM97.2275 14.5165C96.736 13.9808 96.4902 13.253 96.4902 12.333C96.4902 11.476 96.7423 10.7766 97.2464 10.2347C97.7505 9.69275 98.409 9.42179 99.2219 9.42179C100.047 9.42179 100.712 9.69275 101.216 10.2347C101.714 10.7703 101.963 11.4855 101.963 12.3803C101.963 13.2751 101.714 13.9903 101.216 14.5259C100.718 15.0615 100.054 15.3293 99.2219 15.3293C98.3964 15.3293 97.7316 15.0584 97.2275 14.5165ZM78.1836 4.44811C77.1548 4.31081 76.1084 4.48167 75.1766 4.93909C74.2449 5.39651 73.4698 6.11995 72.9492 7.01791C72.4286 7.91588 72.186 8.94805 72.2521 9.98389C72.3181 11.0197 72.6899 12.0127 73.3203 12.8373C73.9507 13.6619 74.8114 14.281 75.7937 14.6164C76.776 14.9518 77.8356 14.9883 78.8387 14.7215C79.8417 14.4546 80.7431 13.8963 81.4289 13.1171L83.2561 14.7253C82.2523 15.8658 80.9328 16.6831 79.4645 17.0737C77.9962 17.4644 76.4451 17.4109 75.0072 16.9199C73.5693 16.429 72.3093 15.5227 71.3865 14.3157C70.4638 13.1086 69.9196 11.6551 69.8229 10.1388C69.7262 8.62249 70.0814 7.11159 70.8434 5.79713C71.6054 4.48267 72.7401 3.42369 74.1039 2.75411C75.4678 2.08453 76.9996 1.83442 78.5056 2.03541C80.0116 2.2364 81.4242 2.87946 82.5648 3.88327L80.9566 5.71047C80.1775 5.02472 79.2125 4.58542 78.1836 4.44811ZM67.1595 13.5826H64V16.7421H67.1595V13.5826Z" fill="black"/>
<path fill-rule="evenodd" clip-rule="evenodd" d="M10.0438 2.64906C10.0438 2.37805 10.0955 2.1264 10.1987 1.8941C10.3019 1.6489 10.4439 1.43597 10.6246 1.25529C10.8052 1.07462 11.0117 0.932665 11.244 0.829423C11.4892 0.726182 11.7473 0.674561 12.0183 0.674561C12.2893 0.674561 12.541 0.726182 12.7733 0.829423C13.0185 0.932665 13.2314 1.07462 13.4121 1.25529C13.5928 1.43597 13.7347 1.6489 13.838 1.8941C13.9412 2.1264 13.9928 2.37805 13.9928 2.64906C13.9928 2.92007 13.9412 3.17817 13.838 3.42337C13.7347 3.65567 13.5928 3.86215 13.4121 4.04282C13.2314 4.2235 13.0185 4.36545 12.7733 4.46869C12.541 4.57194 12.2893 4.62356 12.0183 4.62356C11.7473 4.62356 11.4892 4.57194 11.244 4.46869C11.0117 4.36545 10.8052 4.2235 10.6246 4.04282C10.4439 3.86215 10.3019 3.65567 10.1987 3.42337C10.0955 3.17817 10.0438 2.92007 10.0438 2.64906ZM13.7799 6.46255V16.3931H10.2761V6.46255H13.7799ZM3.79414 5.01072H8.36258V1.79732H0V16.3931H3.79414V10.6632H7.95607V7.4498H3.79414V5.01072ZM27.2856 15.7156V6.46255H23.7819V7.50788C22.9817 6.63032 21.9945 6.19154 20.8201 6.19154C20.0974 6.19154 19.4263 6.3335 18.8069 6.61741C18.2003 6.88842 17.6712 7.26913 17.2195 7.75953C16.7808 8.23702 16.4323 8.80485 16.1742 9.46302C15.9161 10.1083 15.7871 10.8116 15.7871 11.573C15.7871 12.3215 15.9032 13.0055 16.1355 13.6249C16.3807 14.2315 16.7162 14.7542 17.1421 15.1929C17.5809 15.6317 18.0971 15.9737 18.6907 16.2189C19.2844 16.4641 19.9361 16.5867 20.6459 16.5867C20.9685 16.5867 21.2653 16.5609 21.5363 16.5093C21.8074 16.4706 22.0655 16.3996 22.3107 16.2963C22.5559 16.1931 22.7946 16.064 23.0269 15.9092C23.2721 15.7414 23.5237 15.5349 23.7819 15.2897V16.2383C23.7819 16.9739 23.5818 17.5481 23.1818 17.9611C22.7946 18.3741 22.2332 18.5806 21.4976 18.5806C20.633 18.5806 20.0781 18.2515 19.8329 17.5933H15.8839C15.9871 18.1353 16.1936 18.6322 16.5033 19.0839C16.813 19.5484 17.2066 19.9485 17.6841 20.284C18.1745 20.6325 18.7424 20.9035 19.3876 21.0971C20.0329 21.2906 20.7427 21.3874 21.517 21.3874C22.201 21.3874 22.8333 21.31 23.4141 21.1551C24.0077 21.0003 24.5368 20.7873 25.0014 20.5163C25.466 20.2453 25.8596 19.9227 26.1822 19.5484C26.5178 19.1871 26.763 18.7935 26.9178 18.3676C27.034 18.0321 27.1243 17.6449 27.1888 17.2062C27.2534 16.7674 27.2856 16.2705 27.2856 15.7156ZM33.1755 6.46255H29.6718V16.3931H33.1755V11.4956C33.1755 10.9665 33.2143 10.5406 33.2917 10.218C33.382 9.88243 33.4982 9.62433 33.6401 9.44366C33.795 9.25008 33.9692 9.12103 34.1628 9.0565C34.3564 8.99198 34.5629 8.95971 34.7822 8.95971C35.0403 8.95971 35.2662 8.99843 35.4598 9.07586C35.6533 9.14038 35.8082 9.26944 35.9244 9.46302C36.0534 9.65659 36.1502 9.92115 36.2147 10.2567C36.2792 10.5793 36.3115 10.9923 36.3115 11.4956V16.3931H39.8153V11.4956C39.8153 9.85662 40.3766 9.03714 41.4994 9.03714C41.7059 9.03714 41.8995 9.06941 42.0801 9.13393C42.2608 9.19846 42.4157 9.32106 42.5447 9.50173C42.6867 9.68241 42.7899 9.93406 42.8545 10.2567C42.9319 10.5793 42.9706 10.9923 42.9706 11.4956V16.3931H46.4744V9.94696C46.4744 9.2888 46.384 8.72742 46.2034 8.26283C46.0356 7.79824 45.8033 7.42399 45.5065 7.14008C45.2097 6.84326 44.8548 6.63032 44.4418 6.50127C44.0288 6.35931 43.5901 6.28833 43.1255 6.28833C41.6672 6.28833 40.5444 6.91424 39.7572 8.16604C38.9829 6.92714 37.8601 6.30769 36.3889 6.30769C35.2017 6.30769 34.1305 6.76583 33.1755 7.6821V6.46255ZM60.0672 6.46255H56.5441V7.4498C55.731 6.58515 54.7051 6.15283 53.4662 6.15283C52.7306 6.15283 52.0595 6.29478 51.453 6.5787C50.8464 6.84971 50.3237 7.22396 49.885 7.70145C49.4462 8.17895 49.1042 8.74032 48.859 9.38558C48.6138 10.0179 48.4912 10.689 48.4912 11.3988C48.4912 12.1602 48.6138 12.8635 48.859 13.5088C49.1171 14.1541 49.472 14.7154 49.9237 15.1929C50.3754 15.6704 50.9045 16.0447 51.511 16.3157C52.1176 16.5738 52.7822 16.7028 53.5049 16.7028C54.7825 16.7028 55.7956 16.2318 56.5441 15.2897V16.3931H60.0672V6.46255ZM52.3047 12.3086C52.1886 12.0247 52.1305 11.7214 52.1305 11.3988C52.1305 11.0891 52.1886 10.8052 52.3047 10.5471C52.4209 10.2761 52.5757 10.0373 52.7693 9.83083C52.9758 9.62435 53.2145 9.46304 53.4855 9.34689C53.7695 9.23074 54.0727 9.17267 54.3954 9.17267C54.7051 9.17267 54.9954 9.23074 55.2665 9.34689C55.5504 9.46304 55.7891 9.62435 55.9827 9.83083C56.1892 10.0373 56.3505 10.2825 56.4666 10.5664C56.5957 10.8374 56.6602 11.1278 56.6602 11.4375C56.6602 11.7473 56.5957 12.0376 56.4666 12.3086C56.3505 12.5796 56.1892 12.8184 55.9827 13.0249C55.7891 13.2314 55.5504 13.3927 55.2665 13.5088C54.9954 13.625 54.7051 13.683 54.3954 13.683C54.0727 13.683 53.7695 13.625 53.4855 13.5088C53.2145 13.3927 52.9758 13.2314 52.7693 13.0249C52.5757 12.8184 52.4209 12.5796 52.3047 12.3086ZM19.4263 11.3794C19.4263 11.7021 19.4844 12.0053 19.6006 12.2892C19.7167 12.5602 19.8716 12.799 20.0651 13.0055C20.2716 13.212 20.5104 13.3733 20.7814 13.4894C21.0653 13.6056 21.3686 13.6636 21.6912 13.6636C22.0009 13.6636 22.2913 13.6056 22.5623 13.4894C22.8462 13.3733 23.085 13.212 23.2785 13.0055C23.485 12.799 23.6463 12.5602 23.7625 12.2892C23.8915 12.0053 23.9561 11.7085 23.9561 11.3988C23.9561 11.0761 23.8915 10.7793 23.7625 10.5083C23.6463 10.2373 23.485 9.99856 23.2785 9.79208C23.0721 9.58559 22.8269 9.42428 22.5429 9.30813C22.2719 9.19198 21.988 9.13391 21.6912 9.13391C21.3815 9.13391 21.0911 9.19844 20.8201 9.32749C20.5491 9.44364 20.3103 9.60495 20.1039 9.81144C19.8974 10.005 19.7296 10.2373 19.6006 10.5083C19.4844 10.7793 19.4263 11.0697 19.4263 11.3794Z" fill="black"/>
</svg>
