<svg width="89" height="20" viewBox="0 0 89 20" fill="none" xmlns="http://www.w3.org/2000/svg">
<path opacity="0.5" fill-rule="evenodd" clip-rule="evenodd" d="M85.7714 2.71429V15.3529H84.0878V2.71429H85.7714ZM10.9091 7.49119V15.3529H8.13527V7.49119H10.9091ZM7.95137 4.47217C7.95137 4.25762 7.99224 4.0584 8.07397 3.8745C8.15571 3.68038 8.26809 3.51181 8.41112 3.36878C8.55415 3.22574 8.71762 3.11336 8.90152 3.03163C9.09564 2.9499 9.29997 2.90903 9.51452 2.90903C9.72907 2.90903 9.92829 2.9499 10.1122 3.03163C10.3063 3.11336 10.4749 3.22574 10.6179 3.36878C10.7609 3.51181 10.8733 3.68038 10.9551 3.8745C11.0368 4.0584 11.0777 4.25762 11.0777 4.47217C11.0777 4.68672 11.0368 4.89106 10.9551 5.08517C10.8733 5.26907 10.7609 5.43254 10.6179 5.57557C10.4749 5.7186 10.3063 5.83099 10.1122 5.91272C9.92829 5.99445 9.72907 6.03532 9.51452 6.03532C9.29997 6.03532 9.09564 5.99445 8.90152 5.91272C8.71762 5.83099 8.55415 5.7186 8.41112 5.57557C8.26809 5.43254 8.15571 5.26907 8.07397 5.08517C7.99224 4.89106 7.95137 4.68672 7.95137 4.47217ZM6.62038 6.34182H3.00369V8.27276H6.29855V10.8167H3.00369V15.3529H0V3.79788H6.62038V6.34182ZM15.5171 12.104C15.4252 11.8792 15.3792 11.6391 15.3792 11.3837C15.3792 11.1385 15.4252 10.9087 15.5171 10.6941C15.6193 10.4796 15.7521 10.2957 15.9156 10.1424C16.079 9.97894 16.268 9.85123 16.4826 9.75928C16.6971 9.65711 16.927 9.60603 17.1722 9.60603C17.4072 9.60603 17.632 9.65201 17.8465 9.74396C18.0713 9.8359 18.2654 9.96361 18.4288 10.1271C18.5923 10.2905 18.72 10.4796 18.812 10.6941C18.9141 10.9087 18.9652 11.1436 18.9652 11.3991C18.9652 11.6442 18.9141 11.8792 18.812 12.104C18.72 12.3185 18.5923 12.5076 18.4288 12.671C18.2756 12.8345 18.0866 12.9622 17.8618 13.0541C17.6473 13.1461 17.4174 13.1921 17.1722 13.1921C16.9168 13.1921 16.6767 13.1461 16.4519 13.0541C16.2374 12.9622 16.0484 12.8345 15.8849 12.671C15.7317 12.5076 15.6091 12.3185 15.5171 12.104ZM21.6011 14.8165V7.49119H18.8273V8.31874C18.1939 7.624 17.4123 7.27664 16.4826 7.27664C15.9104 7.27664 15.3792 7.38902 14.8888 7.61379C14.4086 7.82834 13.9897 8.12973 13.6321 8.51796C13.2848 8.89598 13.0089 9.34551 12.8046 9.86656C12.6003 10.3774 12.4981 10.9342 12.4981 11.537C12.4981 12.1295 12.59 12.671 12.7739 13.1614C12.9681 13.6416 13.2337 14.0554 13.5708 14.4027C13.9182 14.7501 14.3269 15.0208 14.7968 15.215C15.2668 15.4091 15.7827 15.5061 16.3447 15.5061C16.6001 15.5061 16.8351 15.4857 17.0496 15.4448C17.2642 15.4142 17.4685 15.358 17.6626 15.2763C17.8567 15.1945 18.0457 15.0924 18.2296 14.9698C18.4237 14.8369 18.623 14.6735 18.8273 14.4794V15.2303C18.8273 15.8126 18.6689 16.2673 18.3522 16.5942C18.0457 16.9211 17.6013 17.0846 17.019 17.0846C16.3344 17.0846 15.8951 16.8241 15.701 16.303H12.5747C12.6565 16.7321 12.8199 17.1255 13.0651 17.4831C13.3103 17.8509 13.6219 18.1676 13.9999 18.4332C14.3882 18.7091 14.8377 18.9236 15.3485 19.0769C15.8594 19.2301 16.4213 19.3067 17.0343 19.3067C17.5758 19.3067 18.0764 19.2454 18.5361 19.1228C19.0061 19.0002 19.425 18.8316 19.7928 18.6171C20.1606 18.4026 20.4722 18.1471 20.7276 17.8509C20.9932 17.5648 21.1873 17.2532 21.3099 16.916C21.4019 16.6504 21.4734 16.3439 21.5245 15.9965C21.5756 15.6492 21.6011 15.2558 21.6011 14.8165ZM23.4902 7.49119H26.264V8.45666C27.02 7.73128 27.868 7.36859 28.8079 7.36859C29.9726 7.36859 30.8614 7.85899 31.4744 8.83978C32.0977 7.84877 32.9865 7.35326 34.141 7.35326C34.5088 7.35326 34.8562 7.40946 35.1831 7.52184C35.51 7.624 35.791 7.79258 36.026 8.02756C36.2609 8.25233 36.4448 8.54861 36.5777 8.91641C36.7207 9.28421 36.7922 9.72863 36.7922 10.2497V15.3529H34.0184V11.4757C34.0184 11.0772 33.9877 10.7503 33.9264 10.4949C33.8754 10.2395 33.7936 10.0402 33.6812 9.89721C33.5791 9.75417 33.4565 9.65711 33.3134 9.60603C33.1704 9.55495 33.0172 9.52941 32.8537 9.52941C31.9648 9.52941 31.5204 10.1782 31.5204 11.4757V15.3529H28.7466V11.4757C28.7466 11.0772 28.7211 10.7503 28.67 10.4949C28.6189 10.2292 28.5423 10.0198 28.4401 9.86656C28.3482 9.71331 28.2256 9.61114 28.0723 9.56006C27.9191 9.49876 27.7403 9.46811 27.5359 9.46811C27.3623 9.46811 27.1988 9.49365 27.0455 9.54473C26.8923 9.59581 26.7544 9.69798 26.6318 9.85123C26.5194 9.99426 26.4274 10.1986 26.3559 10.4642C26.2946 10.7196 26.264 11.0568 26.264 11.4757V15.3529H23.4902V7.49119ZM41.4079 12.1193C41.3159 11.8946 41.27 11.6545 41.27 11.3991C41.27 11.1539 41.3159 10.9291 41.4079 10.7248C41.4998 10.5102 41.6224 10.3212 41.7757 10.1577C41.9392 9.99426 42.1282 9.86656 42.3427 9.77461C42.5675 9.68266 42.8076 9.63668 43.063 9.63668C43.3082 9.63668 43.5381 9.68266 43.7526 9.77461C43.9774 9.86656 44.1664 9.99426 44.3196 10.1577C44.4831 10.3212 44.6108 10.5153 44.7028 10.7401C44.8049 10.9546 44.856 11.1845 44.856 11.4297C44.856 11.6749 44.8049 11.9048 44.7028 12.1193C44.6108 12.3339 44.4831 12.5229 44.3196 12.6863C44.1664 12.8498 43.9774 12.9775 43.7526 13.0695C43.5381 13.1614 43.3082 13.2074 43.063 13.2074C42.8076 13.2074 42.5675 13.1614 42.3427 13.0695C42.1282 12.9775 41.9392 12.8498 41.7757 12.6863C41.6224 12.5229 41.4998 12.3339 41.4079 12.1193ZM47.5532 7.49119H44.7641V8.27276C44.1204 7.58825 43.3082 7.24599 42.3274 7.24599C41.745 7.24599 41.2138 7.35837 40.7336 7.58314C40.2534 7.79769 39.8396 8.09397 39.4923 8.47199C39.1449 8.85 38.8742 9.29442 38.68 9.80526C38.4859 10.3059 38.3889 10.8371 38.3889 11.3991C38.3889 12.0018 38.4859 12.5586 38.68 13.0695C38.8844 13.5803 39.1653 14.0247 39.5229 14.4027C39.8805 14.7808 40.2994 15.077 40.7796 15.2916C41.2598 15.4959 41.7859 15.5981 42.358 15.5981C43.3695 15.5981 44.1715 15.2252 44.7641 14.4794V15.3529H47.5532V7.49119ZM66.9343 11.6563C66.9343 10.6037 67.311 9.7083 68.0642 8.96999C68.8175 8.23168 69.7354 7.86252 70.8179 7.86252C71.9054 7.86252 72.8283 8.23417 73.5866 8.97747C74.3349 9.72077 74.709 10.6337 74.709 11.7162C74.709 12.8087 74.3324 13.7241 73.5791 14.4624C72.8209 15.1957 71.8905 15.5624 70.788 15.5624C69.6955 15.5624 68.7801 15.1883 68.0418 14.44C67.3035 13.7017 66.9343 12.7738 66.9343 11.6563ZM68.6554 11.6863C68.6554 12.4146 68.8499 12.9908 69.239 13.4148C69.6381 13.8438 70.1644 14.0583 70.8179 14.0583C71.4764 14.0583 72.0027 13.8463 72.3968 13.4223C72.7909 12.9983 72.988 12.4321 72.988 11.7237C72.988 11.0153 72.7909 10.4491 72.3968 10.0251C71.9977 9.59606 71.4714 9.38155 70.8179 9.38155C70.1744 9.38155 69.6531 9.59606 69.254 10.0251C68.8549 10.4541 68.6554 11.0078 68.6554 11.6863ZM76.4689 8.96999C75.7156 9.7083 75.3389 10.6037 75.3389 11.6563C75.3389 12.7738 75.7081 13.7017 76.4464 14.44C77.1847 15.1883 78.1001 15.5624 79.1926 15.5624C80.2951 15.5624 81.2255 15.1957 81.9837 14.4624C82.737 13.7241 83.1137 12.8087 83.1137 11.7162C83.1137 10.6337 82.7395 9.72077 81.9912 8.97747C81.233 8.23417 80.3101 7.86252 79.2226 7.86252C78.14 7.86252 77.2221 8.23168 76.4689 8.96999ZM77.6437 13.4148C77.2546 12.9908 77.06 12.4146 77.06 11.6863C77.06 11.0078 77.2596 10.4541 77.6586 10.0251C78.0577 9.59606 78.579 9.38155 79.2226 9.38155C79.8761 9.38155 80.4024 9.59606 80.8014 10.0251C81.1955 10.4491 81.3926 11.0153 81.3926 11.7237C81.3926 12.4321 81.1955 12.9983 80.8014 13.4223C80.4073 13.8463 79.8811 14.0583 79.2226 14.0583C78.5691 14.0583 78.0428 13.8438 77.6437 13.4148ZM62.5673 5.44405C61.7528 5.33535 60.9244 5.47062 60.1867 5.83274C59.4491 6.19487 58.8355 6.76759 58.4234 7.47848C58.0112 8.18937 57.8192 9.0065 57.8715 9.82654C57.9238 10.6466 58.2181 11.4327 58.7171 12.0855C59.2162 12.7383 59.8976 13.2284 60.6753 13.4939C61.4529 13.7594 62.2918 13.7884 63.0859 13.5771C63.8799 13.3659 64.5936 12.9239 65.1364 12.307L66.583 13.5802C65.7883 14.4831 64.7437 15.1301 63.5813 15.4393C62.4189 15.7486 61.1909 15.7062 60.0526 15.3176C58.9143 14.9289 57.9168 14.2114 57.1863 13.2559C56.4557 12.3003 56.0249 11.1496 55.9484 9.94916C55.8718 8.74877 56.153 7.55264 56.7562 6.51202C57.3595 5.47141 58.2578 4.63305 59.3375 4.10297C60.4173 3.57288 61.6299 3.37488 62.8222 3.53399C64.0144 3.69311 65.1328 4.2022 66.0357 4.99688L64.7626 6.44341C64.1457 5.90053 63.3818 5.55275 62.5673 5.44405ZM53.8398 12.6755H51.3386V15.1768H53.8398V12.6755Z" fill="black"/>
<mask id="mask0" mask-type="alpha" maskUnits="userSpaceOnUse" x="0" y="2" width="89" height="18">
<path fill-rule="evenodd" clip-rule="evenodd" d="M88.2143 2.71429V15.3529H86.5306V2.71429H88.2143ZM10.9091 7.49119V15.3529H8.13527V7.49119H10.9091ZM7.95137 4.47217C7.95137 4.25762 7.99224 4.0584 8.07397 3.8745C8.15571 3.68038 8.26809 3.51181 8.41112 3.36878C8.55415 3.22574 8.71762 3.11336 8.90152 3.03163C9.09564 2.9499 9.29997 2.90903 9.51452 2.90903C9.72907 2.90903 9.92829 2.9499 10.1122 3.03163C10.3063 3.11336 10.4749 3.22574 10.6179 3.36878C10.7609 3.51181 10.8733 3.68038 10.9551 3.8745C11.0368 4.0584 11.0777 4.25762 11.0777 4.47217C11.0777 4.68672 11.0368 4.89106 10.9551 5.08517C10.8733 5.26907 10.7609 5.43254 10.6179 5.57557C10.4749 5.7186 10.3063 5.83099 10.1122 5.91272C9.92829 5.99445 9.72907 6.03532 9.51452 6.03532C9.29997 6.03532 9.09564 5.99445 8.90152 5.91272C8.71762 5.83099 8.55415 5.7186 8.41112 5.57557C8.26809 5.43254 8.15571 5.26907 8.07397 5.08517C7.99224 4.89106 7.95137 4.68672 7.95137 4.47217ZM6.62038 6.34182H3.00369V8.27276H6.29855V10.8167H3.00369V15.3529H0V3.79788H6.62038V6.34182ZM15.5171 12.104C15.4252 11.8792 15.3792 11.6391 15.3792 11.3837C15.3792 11.1385 15.4252 10.9087 15.5171 10.6941C15.6193 10.4796 15.7521 10.2957 15.9156 10.1424C16.079 9.97894 16.268 9.85123 16.4826 9.75928C16.6971 9.65711 16.927 9.60603 17.1722 9.60603C17.4072 9.60603 17.632 9.65201 17.8465 9.74396C18.0713 9.8359 18.2654 9.96361 18.4288 10.1271C18.5923 10.2905 18.72 10.4796 18.812 10.6941C18.9141 10.9087 18.9652 11.1436 18.9652 11.3991C18.9652 11.6442 18.9141 11.8792 18.812 12.104C18.72 12.3185 18.5923 12.5076 18.4288 12.671C18.2756 12.8345 18.0866 12.9622 17.8618 13.0541C17.6473 13.1461 17.4174 13.1921 17.1722 13.1921C16.9168 13.1921 16.6767 13.1461 16.4519 13.0541C16.2374 12.9622 16.0484 12.8345 15.8849 12.671C15.7317 12.5076 15.6091 12.3185 15.5171 12.104ZM21.6011 14.8165V7.49119H18.8273V8.31874C18.1939 7.624 17.4123 7.27664 16.4826 7.27664C15.9104 7.27664 15.3792 7.38902 14.8888 7.61379C14.4086 7.82834 13.9897 8.12973 13.6321 8.51796C13.2848 8.89598 13.0089 9.34551 12.8046 9.86656C12.6003 10.3774 12.4981 10.9342 12.4981 11.537C12.4981 12.1295 12.59 12.671 12.7739 13.1614C12.9681 13.6416 13.2337 14.0554 13.5708 14.4027C13.9182 14.7501 14.3269 15.0208 14.7968 15.215C15.2668 15.4091 15.7827 15.5061 16.3447 15.5061C16.6001 15.5061 16.8351 15.4857 17.0496 15.4448C17.2642 15.4142 17.4685 15.358 17.6626 15.2763C17.8567 15.1945 18.0457 15.0924 18.2296 14.9698C18.4237 14.8369 18.623 14.6735 18.8273 14.4794V15.2303C18.8273 15.8126 18.6689 16.2673 18.3522 16.5942C18.0457 16.9211 17.6013 17.0846 17.019 17.0846C16.3344 17.0846 15.8951 16.8241 15.701 16.303H12.5747C12.6565 16.7321 12.8199 17.1255 13.0651 17.4831C13.3103 17.8509 13.6219 18.1676 13.9999 18.4332C14.3882 18.7091 14.8377 18.9236 15.3485 19.0769C15.8594 19.2301 16.4213 19.3067 17.0343 19.3067C17.5758 19.3067 18.0764 19.2454 18.5361 19.1228C19.0061 19.0002 19.425 18.8316 19.7928 18.6171C20.1606 18.4026 20.4722 18.1471 20.7276 17.8509C20.9932 17.5648 21.1873 17.2532 21.3099 16.916C21.4019 16.6504 21.4734 16.3439 21.5245 15.9965C21.5756 15.6492 21.6011 15.2558 21.6011 14.8165ZM23.4902 7.49119H26.264V8.45666C27.02 7.73128 27.868 7.36859 28.8079 7.36859C29.9726 7.36859 30.8614 7.85899 31.4744 8.83978C32.0977 7.84877 32.9865 7.35326 34.141 7.35326C34.5088 7.35326 34.8562 7.40946 35.1831 7.52184C35.51 7.624 35.791 7.79258 36.026 8.02756C36.2609 8.25233 36.4448 8.54861 36.5777 8.91641C36.7207 9.28421 36.7922 9.72863 36.7922 10.2497V15.3529H34.0184V11.4757C34.0184 11.0772 33.9877 10.7503 33.9264 10.4949C33.8754 10.2395 33.7936 10.0402 33.6812 9.89721C33.5791 9.75417 33.4565 9.65711 33.3134 9.60603C33.1704 9.55495 33.0172 9.52941 32.8537 9.52941C31.9648 9.52941 31.5204 10.1782 31.5204 11.4757V15.3529H28.7466V11.4757C28.7466 11.0772 28.7211 10.7503 28.67 10.4949C28.6189 10.2292 28.5423 10.0198 28.4401 9.86656C28.3482 9.71331 28.2256 9.61114 28.0723 9.56006C27.9191 9.49876 27.7403 9.46811 27.5359 9.46811C27.3623 9.46811 27.1988 9.49365 27.0455 9.54473C26.8923 9.59581 26.7544 9.69798 26.6318 9.85123C26.5194 9.99426 26.4274 10.1986 26.3559 10.4642C26.2946 10.7196 26.264 11.0568 26.264 11.4757V15.3529H23.4902V7.49119ZM41.4079 12.1193C41.3159 11.8946 41.27 11.6545 41.27 11.3991C41.27 11.1539 41.3159 10.9291 41.4079 10.7248C41.4998 10.5102 41.6224 10.3212 41.7757 10.1577C41.9392 9.99426 42.1282 9.86656 42.3427 9.77461C42.5675 9.68266 42.8076 9.63668 43.063 9.63668C43.3082 9.63668 43.5381 9.68266 43.7526 9.77461C43.9774 9.86656 44.1664 9.99426 44.3196 10.1577C44.4831 10.3212 44.6108 10.5153 44.7028 10.7401C44.8049 10.9546 44.856 11.1845 44.856 11.4297C44.856 11.6749 44.8049 11.9048 44.7028 12.1193C44.6108 12.3339 44.4831 12.5229 44.3196 12.6863C44.1664 12.8498 43.9774 12.9775 43.7526 13.0695C43.5381 13.1614 43.3082 13.2074 43.063 13.2074C42.8076 13.2074 42.5675 13.1614 42.3427 13.0695C42.1282 12.9775 41.9392 12.8498 41.7757 12.6863C41.6224 12.5229 41.4998 12.3339 41.4079 12.1193ZM47.5532 7.49119H44.7641V8.27276C44.1204 7.58825 43.3082 7.24599 42.3274 7.24599C41.745 7.24599 41.2138 7.35837 40.7336 7.58314C40.2534 7.79769 39.8396 8.09397 39.4923 8.47199C39.1449 8.85 38.8742 9.29442 38.68 9.80526C38.4859 10.3059 38.3889 10.8371 38.3889 11.3991C38.3889 12.0018 38.4859 12.5586 38.68 13.0695C38.8844 13.5803 39.1653 14.0247 39.5229 14.4027C39.8805 14.7808 40.2994 15.077 40.7796 15.2916C41.2598 15.4959 41.7859 15.5981 42.358 15.5981C43.3695 15.5981 44.1715 15.2252 44.7641 14.4794V15.3529H47.5532V7.49119ZM67.7486 11.6563C67.7486 10.6037 68.1252 9.7083 68.8785 8.96999C69.6318 8.23168 70.5497 7.86252 71.6322 7.86252C72.7197 7.86252 73.6426 8.23417 74.4009 8.97747C75.1492 9.72077 75.5233 10.6337 75.5233 11.7162C75.5233 12.8087 75.1467 13.7241 74.3934 14.4624C73.6351 15.1957 72.7048 15.5624 71.6023 15.5624C70.5098 15.5624 69.5944 15.1883 68.8561 14.44C68.1178 13.7017 67.7486 12.7738 67.7486 11.6563ZM69.4697 11.6863C69.4697 12.4146 69.6642 12.9908 70.0533 13.4148C70.4524 13.8438 70.9787 14.0583 71.6322 14.0583C72.2907 14.0583 72.817 13.8463 73.2111 13.4223C73.6052 12.9983 73.8023 12.4321 73.8023 11.7237C73.8023 11.0153 73.6052 10.4491 73.2111 10.0251C72.812 9.59606 72.2857 9.38155 71.6322 9.38155C70.9887 9.38155 70.4674 9.59606 70.0683 10.0251C69.6692 10.4541 69.4697 11.0078 69.4697 11.6863ZM78.0974 8.96999C77.3442 9.7083 76.9675 10.6037 76.9675 11.6563C76.9675 12.7738 77.3367 13.7017 78.075 14.44C78.8133 15.1883 79.7287 15.5624 80.8212 15.5624C81.9237 15.5624 82.8541 15.1957 83.6123 14.4624C84.3656 13.7241 84.7422 12.8087 84.7422 11.7162C84.7422 10.6337 84.3681 9.72077 83.6198 8.97747C82.8615 8.23417 81.9386 7.86252 80.8511 7.86252C79.7686 7.86252 78.8507 8.23168 78.0974 8.96999ZM79.2722 13.4148C78.8831 12.9908 78.6886 12.4146 78.6886 11.6863C78.6886 11.0078 78.8881 10.4541 79.2872 10.0251C79.6863 9.59606 80.2076 9.38155 80.8511 9.38155C81.5046 9.38155 82.0309 9.59606 82.43 10.0251C82.8241 10.4491 83.0212 11.0153 83.0212 11.7237C83.0212 12.4321 82.8241 12.9983 82.43 13.4223C82.0359 13.8463 81.5096 14.0583 80.8511 14.0583C80.1976 14.0583 79.6713 13.8438 79.2722 13.4148ZM62.5673 5.44405C61.7528 5.33535 60.9244 5.47062 60.1867 5.83274C59.4491 6.19487 58.8355 6.76759 58.4234 7.47848C58.0112 8.18937 57.8192 9.0065 57.8715 9.82654C57.9238 10.6466 58.2181 11.4327 58.7171 12.0855C59.2162 12.7383 59.8976 13.2284 60.6753 13.4939C61.4529 13.7594 62.2918 13.7884 63.0859 13.5771C63.8799 13.3659 64.5936 12.9239 65.1364 12.307L66.583 13.5802C65.7883 14.4831 64.7437 15.1301 63.5813 15.4393C62.4189 15.7486 61.1909 15.7062 60.0526 15.3176C58.9143 14.9289 57.9168 14.2114 57.1863 13.2559C56.4557 12.3003 56.0249 11.1496 55.9484 9.94916C55.8718 8.74877 56.153 7.55264 56.7562 6.51202C57.3595 5.47141 58.2578 4.63305 59.3375 4.10297C60.4173 3.57288 61.6299 3.37488 62.8222 3.53399C64.0144 3.69311 65.1328 4.2022 66.0357 4.99688L64.7626 6.44341C64.1457 5.90053 63.3818 5.55275 62.5673 5.44405ZM53.8398 12.6755H51.3386V15.1768H53.8398V12.6755Z" fill="#8B8EAB"/>
</mask>
<g mask="url(#mask0)">
<rect x="-2.71429" y="-1.2038" width="52.9286" height="24.4286" fill="black"/>
</g>
</svg>
